<?xml version="1.0" encoding="UTF-8"?>
<svg xmlns="http://www.w3.org/2000/svg" width="900" height="900" viewBox="0 0 900 900" role="img" data-cover="1" data-cover-state="succulent">
  <defs>
    <filter id="hbhaeckel-grain" x="0" y="0" width="100%" height="100%">
    <feTurbulence type="fractalNoise" baseFrequency="0.72" numOctaves="3" stitchTiles="stitch" result="n"/>
    <feColorMatrix type="saturate" values="0" in="n" result="g"/>
    <feComponentTransfer in="g">
      <feFuncA type="table" tableValues="0 0.55"/>
    </feComponentTransfer>
  </filter>
    <radialGradient id="hbhaeckel-vig" cx="50%" cy="46%" r="72%">
    <stop offset="42%" stop-color="#68716f" stop-opacity="0"/>
    <stop offset="100%" stop-color="#68716f" stop-opacity="0.42"/>
  </radialGradient>
    
  </defs>
  <rect width="900" height="900" fill="#d4ddd0"/>
  <ellipse cx="162.0" cy="137.7" rx="360" ry="300" fill="rgba(87,121,139,0.5)"/>
  <ellipse cx="738.0" cy="792.0" rx="420" ry="180" fill="rgba(207,217,205,0.4)"/><circle cx="403.2" cy="427.0" r="150" fill="rgba(30,90,76,0.2)"/><circle cx="403.2" cy="383.6" r="42.4" fill="rgba(58,110,168,0.3)" stroke="#101820" stroke-width="1.2"/><circle cx="403.2" cy="383.6" r="15.4" fill="rgba(16,24,32,0.5)"/><line x1="445.5" y1="384.8" x2="505.5" y2="386.5" stroke="#213a56" stroke-width="1.4"/><line x1="429.3" y1="416.9" x2="468.3" y2="466.9" stroke="#213a56" stroke-width="1.4"/><line x1="393.5" y1="424.8" x2="379.0" y2="487.0" stroke="#213a56" stroke-width="1.4"/><line x1="365.0" y1="401.9" x2="304.1" y2="431.1" stroke="#213a56" stroke-width="1.4"/><line x1="365.2" y1="364.8" x2="319.9" y2="342.3" stroke="#213a56" stroke-width="1.4"/><line x1="394.3" y1="342.1" x2="383.9" y2="293.1" stroke="#213a56" stroke-width="1.4"/><line x1="430.5" y1="351.1" x2="470.5" y2="303.5" stroke="#213a56" stroke-width="1.4"/><circle cx="484.3" cy="481.8" r="40.2" fill="rgba(136,88,184,0.3)" stroke="#101820" stroke-width="1.2"/><circle cx="484.3" cy="481.8" r="14.6" fill="rgba(16,24,32,0.5)"/><line x1="524.4" y1="482.6" x2="588.0" y2="483.8" stroke="#40325d" stroke-width="1.4"/><line x1="508.9" y1="513.5" x2="546.0" y2="561.4" stroke="#40325d" stroke-width="1.4"/><line x1="474.6" y1="520.8" x2="462.4" y2="569.8" stroke="#40325d" stroke-width="1.4"/><line x1="447.7" y1="498.5" x2="390.4" y2="524.6" stroke="#40325d" stroke-width="1.4"/><line x1="448.4" y1="463.7" x2="394.5" y2="436.4" stroke="#40325d" stroke-width="1.4"/><line x1="475.6" y1="442.6" x2="464.8" y2="394.2" stroke="#40325d" stroke-width="1.4"/><line x1="509.7" y1="450.8" x2="543.3" y2="409.8" stroke="#40325d" stroke-width="1.4"/><circle cx="233.9" cy="417.7" r="38.0" fill="rgba(104,104,192,0.3)" stroke="#101820" stroke-width="1.2"/><circle cx="233.9" cy="417.7" r="13.8" fill="rgba(16,24,32,0.5)"/><line x1="271.8" y1="417.9" x2="331.4" y2="418.1" stroke="#333860" stroke-width="1.4"/><line x1="257.4" y1="447.5" x2="294.4" y2="494.4" stroke="#333860" stroke-width="1.4"/><line x1="224.7" y1="454.6" x2="214.0" y2="497.8" stroke="#333860" stroke-width="1.4"/><line x1="199.3" y1="433.4" x2="144.7" y2="458.2" stroke="#333860" stroke-width="1.4"/><line x1="200.1" y1="400.3" x2="157.7" y2="378.4" stroke="#333860" stroke-width="1.4"/><line x1="226.3" y1="380.5" x2="214.4" y2="321.6" stroke="#333860" stroke-width="1.4"/><line x1="257.9" y1="388.4" x2="290.3" y2="348.7" stroke="#333860" stroke-width="1.4"/><circle cx="458.8" cy="400.6" r="35.8" fill="rgba(138,58,64,0.3)" stroke="#101820" stroke-width="1.2"/><circle cx="458.8" cy="400.6" r="13.0" fill="rgba(16,24,32,0.5)"/><line x1="494.5" y1="401.2" x2="540.1" y2="402.1" stroke="#41262d" stroke-width="1.4"/><line x1="480.8" y1="428.7" x2="511.9" y2="468.4" stroke="#41262d" stroke-width="1.4"/><line x1="450.2" y1="435.3" x2="439.1" y2="480.2" stroke="#41262d" stroke-width="1.4"/><line x1="426.3" y1="415.5" x2="383.8" y2="435.0" stroke="#41262d" stroke-width="1.4"/><line x1="426.9" y1="384.2" x2="388.2" y2="364.4" stroke="#41262d" stroke-width="1.4"/><line x1="451.1" y1="365.6" x2="440.5" y2="317.7" stroke="#41262d" stroke-width="1.4"/><line x1="481.2" y1="372.7" x2="509.6" y2="337.6" stroke="#41262d" stroke-width="1.4"/><circle cx="382.3" cy="500.2" r="33.6" fill="rgba(196,120,58,0.3)" stroke="#101820" stroke-width="1.2"/><circle cx="382.3" cy="500.2" r="12.2" fill="rgba(16,24,32,0.5)"/><line x1="415.8" y1="501.1" x2="468.5" y2="502.6" stroke="#583e2a" stroke-width="1.4"/><line x1="403.0" y1="526.6" x2="431.1" y2="562.6" stroke="#583e2a" stroke-width="1.4"/><line x1="374.2" y1="532.8" x2="362.5" y2="579.6" stroke="#583e2a" stroke-width="1.4"/><line x1="351.9" y1="514.4" x2="307.1" y2="535.2" stroke="#583e2a" stroke-width="1.4"/><line x1="352.1" y1="485.6" x2="314.1" y2="467.1" stroke="#583e2a" stroke-width="1.4"/><line x1="375.1" y1="467.4" x2="363.7" y2="415.7" stroke="#583e2a" stroke-width="1.4"/><line x1="403.4" y1="474.1" x2="432.9" y2="437.6" stroke="#583e2a" stroke-width="1.4"/><circle cx="312.0" cy="338.0" r="31.4" fill="rgba(58,36,24,0.3)" stroke="#101820" stroke-width="1.2"/><circle cx="312.0" cy="338.0" r="11.4" fill="rgba(16,24,32,0.5)"/><line x1="343.3" y1="338.5" x2="384.7" y2="339.1" stroke="#211d1d" stroke-width="1.4"/><line x1="330.9" y1="363.0" x2="357.9" y2="398.7" stroke="#211d1d" stroke-width="1.4"/><line x1="304.5" y1="368.5" x2="292.6" y2="416.7" stroke="#211d1d" stroke-width="1.4"/><line x1="283.4" y1="351.0" x2="237.4" y2="371.8" stroke="#211d1d" stroke-width="1.4"/><line x1="283.9" y1="324.0" x2="242.7" y2="303.4" stroke="#211d1d" stroke-width="1.4"/><line x1="305.5" y1="307.3" x2="296.6" y2="265.4" stroke="#211d1d" stroke-width="1.4"/><line x1="331.6" y1="313.6" x2="357.0" y2="282.1" stroke="#211d1d" stroke-width="1.4"/><circle cx="470.8" cy="438.2" r="29.2" fill="rgba(106,74,50,0.3)" stroke="#101820" stroke-width="1.2"/><circle cx="470.8" cy="438.2" r="10.6" fill="rgba(16,24,32,0.5)"/><line x1="500.0" y1="438.6" x2="546.5" y2="439.3" stroke="#342c27" stroke-width="1.4"/><line x1="488.5" y1="461.4" x2="509.4" y2="488.9" stroke="#342c27" stroke-width="1.4"/><line x1="464.2" y1="466.6" x2="453.9" y2="510.9" stroke="#342c27" stroke-width="1.4"/><line x1="444.5" y1="450.9" x2="411.8" y2="466.6" stroke="#342c27" stroke-width="1.4"/><line x1="444.6" y1="425.4" x2="413.8" y2="410.3" stroke="#342c27" stroke-width="1.4"/><line x1="465.1" y1="409.6" x2="456.1" y2="364.2" stroke="#342c27" stroke-width="1.4"/><line x1="489.3" y1="415.7" x2="515.0" y2="384.3" stroke="#342c27" stroke-width="1.4"/><circle cx="403.2" cy="427.0" r="44.4" fill="rgba(58,110,168,0.3)" stroke="#101820" stroke-width="1.2"/><circle cx="403.2" cy="427.0" r="16.2" fill="rgba(16,24,32,0.5)"/><line x1="447.6" y1="427.6" x2="502.5" y2="428.5" stroke="#213a56" stroke-width="1.4"/><line x1="443.9" y1="444.8" x2="501.4" y2="469.9" stroke="#213a56" stroke-width="1.4"/><line x1="433.9" y1="459.1" x2="472.0" y2="498.9" stroke="#213a56" stroke-width="1.4"/><line x1="419.5" y1="468.3" x2="439.9" y2="519.9" stroke="#213a56" stroke-width="1.4"/><line x1="402.2" y1="471.4" x2="400.9" y2="525.7" stroke="#213a56" stroke-width="1.4"/><line x1="385.8" y1="467.9" x2="364.5" y2="517.9" stroke="#213a56" stroke-width="1.4"/><line x1="371.0" y1="457.6" x2="329.9" y2="496.7" stroke="#213a56" stroke-width="1.4"/><line x1="361.8" y1="443.1" x2="311.4" y2="462.8" stroke="#213a56" stroke-width="1.4"/><line x1="358.8" y1="426.1" x2="297.1" y2="424.8" stroke="#213a56" stroke-width="1.4"/><line x1="362.2" y1="409.9" x2="297.3" y2="382.9" stroke="#213a56" stroke-width="1.4"/><line x1="371.9" y1="395.4" x2="325.4" y2="348.4" stroke="#213a56" stroke-width="1.4"/><line x1="386.6" y1="385.7" x2="363.3" y2="328.1" stroke="#213a56" stroke-width="1.4"/><line x1="404.4" y1="382.5" x2="405.9" y2="325.4" stroke="#213a56" stroke-width="1.4"/><line x1="421.4" y1="386.4" x2="444.8" y2="334.5" stroke="#213a56" stroke-width="1.4"/><line x1="435.0" y1="395.9" x2="480.6" y2="351.4" stroke="#213a56" stroke-width="1.4"/><line x1="444.7" y1="411.0" x2="510.2" y2="385.8" stroke="#213a56" stroke-width="1.4"/><circle cx="194.7" cy="260.0" r="3.6" fill="rgba(58,110,168,0.38)"/><circle cx="822.4" cy="400.0" r="3.6" fill="rgba(136,88,184,0.38)"/><circle cx="844.4" cy="440.0" r="3.2" fill="rgba(104,104,192,0.38)"/><circle cx="269.5" cy="440.0" r="2.9" fill="rgba(138,58,64,0.38)"/><circle cx="847.4" cy="540.0" r="3.7" fill="rgba(196,120,58,0.38)"/><circle cx="77.5" cy="260.0" r="3.7" fill="rgba(58,36,24,0.38)"/><circle cx="319.6" cy="440.0" r="3.0" fill="rgba(106,74,50,0.38)"/><circle cx="764.7" cy="300.0" r="3.8" fill="rgba(58,110,168,0.38)"/><circle cx="102.5" cy="380.0" r="3.7" fill="rgba(136,88,184,0.38)"/><circle cx="772.5" cy="400.0" r="3.7" fill="rgba(104,104,192,0.38)"/><circle cx="828.7" cy="380.0" r="2.2" fill="rgba(138,58,64,0.38)"/><circle cx="277.3" cy="260.0" r="3.7" fill="rgba(196,120,58,0.38)"/><circle cx="182.2" cy="440.0" r="3.5" fill="rgba(58,36,24,0.38)"/><circle cx="289.9" cy="300.0" r="3.5" fill="rgba(106,74,50,0.38)"/><circle cx="302.3" cy="380.0" r="3.7" fill="rgba(58,110,168,0.38)"/><circle cx="266.5" cy="440.0" r="2.4" fill="rgba(136,88,184,0.38)"/><circle cx="810.0" cy="320.0" r="3.7" fill="rgba(104,104,192,0.38)"/><circle cx="241.4" cy="300.0" r="2.3" fill="rgba(138,58,64,0.38)"/><circle cx="332.0" cy="260.0" r="2.8" fill="rgba(196,120,58,0.38)"/><circle cx="107.2" cy="300.0" r="3.7" fill="rgba(58,36,24,0.38)"/><circle cx="252.4" cy="380.0" r="3.7" fill="rgba(106,74,50,0.38)"/><circle cx="40.0" cy="300.0" r="3.6" fill="rgba(58,110,168,0.38)"/><circle cx="834.9" cy="400.0" r="3.6" fill="rgba(136,88,184,0.38)"/><circle cx="791.2" cy="440.0" r="2.2" fill="rgba(104,104,192,0.38)"/><circle cx="778.7" cy="380.0" r="2.2" fill="rgba(138,58,64,0.38)"/><circle cx="860.0" cy="320.0" r="3.6" fill="rgba(196,120,58,0.38)"/><circle cx="831.8" cy="380.0" r="3.0" fill="rgba(58,36,24,0.38)"/><circle cx="806.8" cy="260.0" r="3.2" fill="rgba(106,74,50,0.38)"/><circle cx="794.3" cy="440.0" r="3.1" fill="rgba(58,110,168,0.38)"/><circle cx="852.1" cy="260.0" r="3.6" fill="rgba(136,88,184,0.38)"/><circle cx="291.5" cy="300.0" r="2.5" fill="rgba(104,104,192,0.38)"/><circle cx="254.0" cy="380.0" r="2.0" fill="rgba(138,58,64,0.38)"/><circle cx="132.3" cy="440.0" r="3.6" fill="rgba(196,120,58,0.38)"/><circle cx="781.9" cy="380.0" r="3.0" fill="rgba(58,36,24,0.38)"/><circle cx="856.8" cy="260.0" r="2.8" fill="rgba(106,74,50,0.38)"/><circle cx="803.8" cy="260.0" r="2.4" fill="rgba(58,110,168,0.38)"/>
  <rect width="900" height="900" filter="url(#hbhaeckel-grain)" opacity="0.16" style="pointer-events:none"/>
  <rect width="900" height="900" fill="url(#hbhaeckel-vig)" style="pointer-events:none"/>
</svg>