<?xml version="1.0" encoding="UTF-8"?>
<svg xmlns="http://www.w3.org/2000/svg" width="900" height="900" viewBox="0 0 900 900" role="img" data-cover="1" data-cover-state="tree">
  <defs>
    <filter id="hbhaeckel-grain" x="0" y="0" width="100%" height="100%">
    <feTurbulence type="fractalNoise" baseFrequency="0.72" numOctaves="3" stitchTiles="stitch" result="n"/>
    <feColorMatrix type="saturate" values="0" in="n" result="g"/>
    <feComponentTransfer in="g">
      <feFuncA type="table" tableValues="0 0.55"/>
    </feComponentTransfer>
  </filter>
    <radialGradient id="hbhaeckel-vig" cx="50%" cy="46%" r="72%">
    <stop offset="42%" stop-color="#68716f" stop-opacity="0"/>
    <stop offset="100%" stop-color="#68716f" stop-opacity="0.42"/>
  </radialGradient>
    
  </defs>
  <rect width="900" height="900" fill="#d4ddd0"/>
  <ellipse cx="456.1" cy="360.9" rx="540" ry="500" fill="rgba(148,125,95,0.5)"/>
  <ellipse cx="443.9" cy="792.0" rx="420" ry="280" fill="rgba(207,217,205,0.4)"/><circle cx="432.6" cy="448.0" r="150" fill="rgba(30,90,76,0.2)"/><circle cx="432.6" cy="408.0" r="66.5" fill="rgba(212,120,58,0.3)" stroke="#101820" stroke-width="1.2"/><circle cx="432.6" cy="408.0" r="24.2" fill="rgba(16,24,32,0.5)"/><line x1="499.2" y1="408.5" x2="585.0" y2="409.1" stroke="#5e3e2a" stroke-width="1.4"/><line x1="493.9" y1="433.8" x2="578.6" y2="469.5" stroke="#5e3e2a" stroke-width="1.4"/><line x1="478.3" y1="456.3" x2="533.4" y2="514.6" stroke="#5e3e2a" stroke-width="1.4"/><line x1="457.3" y1="469.8" x2="496.6" y2="568.5" stroke="#5e3e2a" stroke-width="1.4"/><line x1="431.1" y1="474.5" x2="428.7" y2="580.0" stroke="#5e3e2a" stroke-width="1.4"/><line x1="406.8" y1="469.3" x2="367.5" y2="562.5" stroke="#5e3e2a" stroke-width="1.4"/><line x1="385.3" y1="454.8" x2="329.8" y2="509.8" stroke="#5e3e2a" stroke-width="1.4"/><line x1="370.8" y1="432.6" x2="287.0" y2="465.9" stroke="#5e3e2a" stroke-width="1.4"/><line x1="366.1" y1="406.5" x2="258.8" y2="404.2" stroke="#5e3e2a" stroke-width="1.4"/><line x1="371.7" y1="381.2" x2="292.3" y2="346.4" stroke="#5e3e2a" stroke-width="1.4"/><line x1="386.3" y1="360.2" x2="318.1" y2="290.0" stroke="#5e3e2a" stroke-width="1.4"/><line x1="408.0" y1="346.1" x2="378.4" y2="271.6" stroke="#5e3e2a" stroke-width="1.4"/><line x1="432.7" y1="341.4" x2="432.8" y2="251.5" stroke="#5e3e2a" stroke-width="1.4"/><line x1="458.8" y1="346.8" x2="491.1" y2="271.3" stroke="#5e3e2a" stroke-width="1.4"/><line x1="480.4" y1="361.6" x2="556.6" y2="287.7" stroke="#5e3e2a" stroke-width="1.4"/><line x1="494.6" y1="383.8" x2="576.6" y2="351.8" stroke="#5e3e2a" stroke-width="1.4"/><circle cx="506.9" cy="529.1" r="64.3" fill="rgba(122,154,60,0.3)" stroke="#101820" stroke-width="1.2"/><circle cx="506.9" cy="529.1" r="23.4" fill="rgba(16,24,32,0.5)"/><line x1="571.2" y1="530.5" x2="669.7" y2="532.6" stroke="#3a4c2b" stroke-width="1.4"/><line x1="565.9" y1="554.7" x2="643.0" y2="588.2" stroke="#3a4c2b" stroke-width="1.4"/><line x1="551.4" y1="575.6" x2="620.4" y2="647.8" stroke="#3a4c2b" stroke-width="1.4"/><line x1="531.1" y1="588.7" x2="568.6" y2="681.2" stroke="#3a4c2b" stroke-width="1.4"/><line x1="505.4" y1="593.4" x2="503.4" y2="678.2" stroke="#3a4c2b" stroke-width="1.4"/><line x1="480.7" y1="587.8" x2="449.0" y2="658.9" stroke="#3a4c2b" stroke-width="1.4"/><line x1="461.3" y1="574.4" x2="394.0" y2="641.3" stroke="#3a4c2b" stroke-width="1.4"/><line x1="447.1" y1="552.7" x2="362.1" y2="586.1" stroke="#3a4c2b" stroke-width="1.4"/><line x1="442.6" y1="528.1" x2="346.7" y2="526.7" stroke="#3a4c2b" stroke-width="1.4"/><line x1="447.5" y1="504.3" x2="372.2" y2="472.9" stroke="#3a4c2b" stroke-width="1.4"/><line x1="462.0" y1="483.0" x2="404.2" y2="423.7" stroke="#3a4c2b" stroke-width="1.4"/><line x1="483.7" y1="469.1" x2="453.4" y2="390.4" stroke="#3a4c2b" stroke-width="1.4"/><line x1="508.6" y1="464.8" x2="510.7" y2="384.0" stroke="#3a4c2b" stroke-width="1.4"/><line x1="531.9" y1="469.8" x2="565.7" y2="389.4" stroke="#3a4c2b" stroke-width="1.4"/><line x1="553.1" y1="484.3" x2="613.2" y2="425.8" stroke="#3a4c2b" stroke-width="1.4"/><line x1="566.9" y1="505.8" x2="636.5" y2="478.7" stroke="#3a4c2b" stroke-width="1.4"/><circle cx="253.3" cy="432.2" r="62.1" fill="rgba(201,180,74,0.3)" stroke="#101820" stroke-width="1.2"/><circle cx="253.3" cy="432.2" r="22.6" fill="rgba(16,24,32,0.5)"/><line x1="315.4" y1="433.3" x2="408.1" y2="435.0" stroke="#5a5631" stroke-width="1.4"/><line x1="310.7" y1="456.2" x2="392.4" y2="490.3" stroke="#5a5631" stroke-width="1.4"/><line x1="296.9" y1="476.5" x2="361.9" y2="542.3" stroke="#5a5631" stroke-width="1.4"/><line x1="275.7" y1="490.2" x2="303.5" y2="562.0" stroke="#5a5631" stroke-width="1.4"/><line x1="253.1" y1="494.4" x2="252.9" y2="567.4" stroke="#5a5631" stroke-width="1.4"/><line x1="229.0" y1="489.4" x2="195.0" y2="569.2" stroke="#5a5631" stroke-width="1.4"/><line x1="208.9" y1="475.7" x2="155.4" y2="528.2" stroke="#5a5631" stroke-width="1.4"/><line x1="195.4" y1="454.7" x2="116.9" y2="485.2" stroke="#5a5631" stroke-width="1.4"/><line x1="191.2" y1="432.0" x2="93.5" y2="431.6" stroke="#5a5631" stroke-width="1.4"/><line x1="195.9" y1="408.3" x2="122.6" y2="377.8" stroke="#5a5631" stroke-width="1.4"/><line x1="209.5" y1="388.1" x2="154.4" y2="332.7" stroke="#5a5631" stroke-width="1.4"/><line x1="229.8" y1="374.7" x2="200.7" y2="303.3" stroke="#5a5631" stroke-width="1.4"/><line x1="254.2" y1="370.1" x2="255.5" y2="285.0" stroke="#5a5631" stroke-width="1.4"/><line x1="278.5" y1="375.4" x2="318.1" y2="285.9" stroke="#5a5631" stroke-width="1.4"/><line x1="298.2" y1="389.2" x2="362.0" y2="328.1" stroke="#5a5631" stroke-width="1.4"/><line x1="311.4" y1="410.1" x2="380.0" y2="383.9" stroke="#5a5631" stroke-width="1.4"/><circle cx="631.0" cy="295.9" r="59.9" fill="rgba(47,138,122,0.3)" stroke="#101820" stroke-width="1.2"/><circle cx="631.0" cy="295.9" r="21.8" fill="rgba(16,24,32,0.5)"/><line x1="691.0" y1="296.1" x2="773.5" y2="296.5" stroke="#1c4644" stroke-width="1.4"/><line x1="685.8" y1="320.1" x2="751.6" y2="349.2" stroke="#1c4644" stroke-width="1.4"/><line x1="672.6" y1="339.1" x2="721.8" y2="390.3" stroke="#1c4644" stroke-width="1.4"/><line x1="653.7" y1="351.3" x2="688.7" y2="436.8" stroke="#1c4644" stroke-width="1.4"/><line x1="629.9" y1="355.8" x2="628.1" y2="447.5" stroke="#1c4644" stroke-width="1.4"/><line x1="607.4" y1="351.0" x2="570.7" y2="436.6" stroke="#1c4644" stroke-width="1.4"/><line x1="587.9" y1="337.6" x2="526.7" y2="396.9" stroke="#1c4644" stroke-width="1.4"/><line x1="575.5" y1="318.4" x2="510.1" y2="344.9" stroke="#1c4644" stroke-width="1.4"/><line x1="571.1" y1="294.3" x2="477.9" y2="292.0" stroke="#1c4644" stroke-width="1.4"/><line x1="575.8" y1="272.6" x2="502.0" y2="241.5" stroke="#1c4644" stroke-width="1.4"/><line x1="589.1" y1="253.0" x2="523.6" y2="186.3" stroke="#1c4644" stroke-width="1.4"/><line x1="609.4" y1="240.0" x2="575.4" y2="152.2" stroke="#1c4644" stroke-width="1.4"/><line x1="632.8" y1="235.9" x2="634.9" y2="162.7" stroke="#1c4644" stroke-width="1.4"/><line x1="655.5" y1="241.1" x2="694.0" y2="155.1" stroke="#1c4644" stroke-width="1.4"/><line x1="674.3" y1="254.4" x2="730.7" y2="200.3" stroke="#1c4644" stroke-width="1.4"/><line x1="687.0" y1="274.5" x2="754.7" y2="248.6" stroke="#1c4644" stroke-width="1.4"/><circle cx="425.6" cy="487.4" r="57.7" fill="rgba(224,160,48,0.3)" stroke="#101820" stroke-width="1.2"/><circle cx="425.6" cy="487.4" r="21.0" fill="rgba(16,24,32,0.5)"/><line x1="483.4" y1="489.1" x2="570.7" y2="491.6" stroke="#634e26" stroke-width="1.4"/><line x1="478.9" y1="509.8" x2="553.4" y2="541.1" stroke="#634e26" stroke-width="1.4"/><line x1="465.4" y1="529.2" x2="525.0" y2="592.0" stroke="#634e26" stroke-width="1.4"/><line x1="447.7" y1="540.7" x2="482.8" y2="625.4" stroke="#634e26" stroke-width="1.4"/><line x1="425.4" y1="545.1" x2="425.1" y2="619.6" stroke="#634e26" stroke-width="1.4"/><line x1="403.5" y1="540.7" x2="373.7" y2="612.2" stroke="#634e26" stroke-width="1.4"/><line x1="384.2" y1="527.5" x2="327.6" y2="582.3" stroke="#634e26" stroke-width="1.4"/><line x1="371.9" y1="508.6" x2="307.8" y2="533.9" stroke="#634e26" stroke-width="1.4"/><line x1="367.9" y1="487.1" x2="295.2" y2="486.8" stroke="#634e26" stroke-width="1.4"/><line x1="372.6" y1="464.6" x2="298.6" y2="432.8" stroke="#634e26" stroke-width="1.4"/><line x1="385.4" y1="445.9" x2="335.7" y2="394.8" stroke="#634e26" stroke-width="1.4"/><line x1="404.2" y1="433.8" x2="370.4" y2="349.5" stroke="#634e26" stroke-width="1.4"/><line x1="426.1" y1="429.6" x2="426.7" y2="337.3" stroke="#634e26" stroke-width="1.4"/><line x1="448.0" y1="434.1" x2="475.0" y2="369.9" stroke="#634e26" stroke-width="1.4"/><line x1="466.5" y1="446.6" x2="516.3" y2="397.0" stroke="#634e26" stroke-width="1.4"/><line x1="479.4" y1="466.2" x2="552.1" y2="437.5" stroke="#634e26" stroke-width="1.4"/><circle cx="373.6" cy="355.2" r="55.5" fill="rgba(61,138,90,0.3)" stroke="#101820" stroke-width="1.2"/><circle cx="373.6" cy="355.2" r="20.2" fill="rgba(16,24,32,0.5)"/><line x1="429.1" y1="355.2" x2="508.8" y2="355.2" stroke="#224637" stroke-width="1.4"/><line x1="424.8" y1="376.7" x2="496.1" y2="406.7" stroke="#224637" stroke-width="1.4"/><line x1="412.5" y1="394.8" x2="461.2" y2="444.2" stroke="#224637" stroke-width="1.4"/><line x1="393.5" y1="407.0" x2="423.0" y2="483.6" stroke="#224637" stroke-width="1.4"/><line x1="373.3" y1="410.7" x2="372.8" y2="495.5" stroke="#224637" stroke-width="1.4"/><line x1="352.1" y1="406.4" x2="320.0" y2="483.0" stroke="#224637" stroke-width="1.4"/><line x1="334.0" y1="394.2" x2="287.1" y2="440.5" stroke="#224637" stroke-width="1.4"/><line x1="322.0" y1="375.9" x2="242.0" y2="408.1" stroke="#224637" stroke-width="1.4"/><line x1="318.0" y1="353.8" x2="233.2" y2="351.7" stroke="#224637" stroke-width="1.4"/><line x1="322.3" y1="333.7" x2="252.7" y2="304.5" stroke="#224637" stroke-width="1.4"/><line x1="334.9" y1="315.3" x2="281.6" y2="260.3" stroke="#224637" stroke-width="1.4"/><line x1="353.2" y1="303.5" x2="322.9" y2="226.4" stroke="#224637" stroke-width="1.4"/><line x1="375.2" y1="299.6" x2="377.5" y2="224.3" stroke="#224637" stroke-width="1.4"/><line x1="395.0" y1="303.9" x2="425.4" y2="231.4" stroke="#224637" stroke-width="1.4"/><line x1="413.3" y1="316.3" x2="470.3" y2="260.7" stroke="#224637" stroke-width="1.4"/><line x1="425.4" y1="335.2" x2="506.6" y2="303.9" stroke="#224637" stroke-width="1.4"/><circle cx="606.4" cy="494.7" r="53.3" fill="rgba(196,72,88,0.3)" stroke="#101820" stroke-width="1.2"/><circle cx="606.4" cy="494.7" r="19.4" fill="rgba(16,24,32,0.5)"/><line x1="659.8" y1="495.5" x2="726.7" y2="496.5" stroke="#582b36" stroke-width="1.4"/><line x1="655.6" y1="515.4" x2="724.2" y2="544.2" stroke="#582b36" stroke-width="1.4"/><line x1="643.1" y1="533.4" x2="691.2" y2="584.2" stroke="#582b36" stroke-width="1.4"/><line x1="625.6" y1="544.5" x2="652.0" y2="613.0" stroke="#582b36" stroke-width="1.4"/><line x1="606.2" y1="548.0" x2="605.9" y2="622.2" stroke="#582b36" stroke-width="1.4"/><line x1="585.3" y1="543.7" x2="552.1" y2="620.8" stroke="#582b36" stroke-width="1.4"/><line x1="568.1" y1="531.8" x2="510.2" y2="588.0" stroke="#582b36" stroke-width="1.4"/><line x1="556.9" y1="514.3" x2="491.1" y2="540.4" stroke="#582b36" stroke-width="1.4"/><line x1="553.1" y1="494.5" x2="472.5" y2="494.2" stroke="#582b36" stroke-width="1.4"/><line x1="557.3" y1="474.0" x2="481.5" y2="442.0" stroke="#582b36" stroke-width="1.4"/><line x1="569.8" y1="455.9" x2="514.7" y2="397.4" stroke="#582b36" stroke-width="1.4"/><line x1="587.0" y1="445.0" x2="563.9" y2="386.1" stroke="#582b36" stroke-width="1.4"/><line x1="607.8" y1="441.4" x2="609.8" y2="360.0" stroke="#582b36" stroke-width="1.4"/><line x1="627.4" y1="445.6" x2="658.9" y2="371.7" stroke="#582b36" stroke-width="1.4"/><line x1="644.7" y1="457.5" x2="695.6" y2="408.2" stroke="#582b36" stroke-width="1.4"/><line x1="655.7" y1="474.3" x2="713.9" y2="450.3" stroke="#582b36" stroke-width="1.4"/><circle cx="210.8" cy="563.2" r="51.1" fill="rgba(212,120,58,0.3)" stroke="#101820" stroke-width="1.2"/><circle cx="210.8" cy="563.2" r="18.6" fill="rgba(16,24,32,0.5)"/><line x1="261.9" y1="563.3" x2="323.6" y2="563.4" stroke="#5e3e2a" stroke-width="1.4"/><line x1="258.0" y1="582.8" x2="332.6" y2="613.7" stroke="#5e3e2a" stroke-width="1.4"/><line x1="246.6" y1="599.7" x2="297.6" y2="651.7" stroke="#5e3e2a" stroke-width="1.4"/><line x1="229.2" y1="610.9" x2="257.2" y2="683.1" stroke="#5e3e2a" stroke-width="1.4"/><line x1="210.3" y1="614.3" x2="209.8" y2="680.0" stroke="#5e3e2a" stroke-width="1.4"/><line x1="190.1" y1="610.0" x2="163.0" y2="671.1" stroke="#5e3e2a" stroke-width="1.4"/><line x1="174.1" y1="598.8" x2="115.3" y2="656.0" stroke="#5e3e2a" stroke-width="1.4"/><line x1="163.4" y1="582.5" x2="104.7" y2="606.5" stroke="#5e3e2a" stroke-width="1.4"/><line x1="159.6" y1="562.5" x2="88.5" y2="561.5" stroke="#5e3e2a" stroke-width="1.4"/><line x1="164.1" y1="542.3" x2="103.9" y2="515.2" stroke="#5e3e2a" stroke-width="1.4"/><line x1="175.6" y1="526.0" x2="127.8" y2="475.3" stroke="#5e3e2a" stroke-width="1.4"/><line x1="191.8" y1="515.7" x2="163.8" y2="445.2" stroke="#5e3e2a" stroke-width="1.4"/><line x1="210.9" y1="512.0" x2="211.1" y2="450.4" stroke="#5e3e2a" stroke-width="1.4"/><line x1="230.8" y1="516.1" x2="259.1" y2="449.6" stroke="#5e3e2a" stroke-width="1.4"/><line x1="247.1" y1="527.2" x2="290.3" y2="484.5" stroke="#5e3e2a" stroke-width="1.4"/><line x1="258.3" y1="544.4" x2="314.5" y2="522.2" stroke="#5e3e2a" stroke-width="1.4"/><circle cx="446.3" cy="410.4" r="48.9" fill="rgba(122,154,60,0.3)" stroke="#101820" stroke-width="1.2"/><circle cx="446.3" cy="410.4" r="17.8" fill="rgba(16,24,32,0.5)"/><line x1="495.3" y1="411.2" x2="553.4" y2="412.1" stroke="#3a4c2b" stroke-width="1.4"/><line x1="491.0" y1="430.4" x2="563.0" y2="462.8" stroke="#3a4c2b" stroke-width="1.4"/><line x1="480.3" y1="445.7" x2="533.6" y2="501.2" stroke="#3a4c2b" stroke-width="1.4"/><line x1="464.7" y1="455.7" x2="488.1" y2="513.4" stroke="#3a4c2b" stroke-width="1.4"/><line x1="445.4" y1="459.3" x2="444.1" y2="533.1" stroke="#3a4c2b" stroke-width="1.4"/><line x1="426.4" y1="455.1" x2="396.3" y2="522.8" stroke="#3a4c2b" stroke-width="1.4"/><line x1="411.5" y1="444.8" x2="370.5" y2="485.4" stroke="#3a4c2b" stroke-width="1.4"/><line x1="400.8" y1="428.4" x2="336.8" y2="453.6" stroke="#3a4c2b" stroke-width="1.4"/><line x1="397.4" y1="409.3" x2="325.8" y2="407.7" stroke="#3a4c2b" stroke-width="1.4"/><line x1="401.2" y1="391.4" x2="344.0" y2="367.4" stroke="#3a4c2b" stroke-width="1.4"/><line x1="411.9" y1="375.6" x2="364.3" y2="327.4" stroke="#3a4c2b" stroke-width="1.4"/><line x1="428.6" y1="364.8" x2="402.8" y2="298.2" stroke="#3a4c2b" stroke-width="1.4"/><line x1="446.5" y1="361.4" x2="446.6" y2="302.3" stroke="#3a4c2b" stroke-width="1.4"/><line x1="465.7" y1="365.5" x2="490.0" y2="309.4" stroke="#3a4c2b" stroke-width="1.4"/><line x1="481.3" y1="376.1" x2="527.1" y2="331.3" stroke="#3a4c2b" stroke-width="1.4"/><line x1="491.6" y1="391.7" x2="558.7" y2="364.1" stroke="#3a4c2b" stroke-width="1.4"/><circle cx="474.6" cy="549.6" r="46.7" fill="rgba(201,180,74,0.3)" stroke="#101820" stroke-width="1.2"/><circle cx="474.6" cy="549.6" r="17.0" fill="rgba(16,24,32,0.5)"/><line x1="521.3" y1="549.9" x2="578.2" y2="550.3" stroke="#5a5631" stroke-width="1.4"/><line x1="517.3" y1="568.6" x2="584.1" y2="598.2" stroke="#5a5631" stroke-width="1.4"/><line x1="507.0" y1="583.4" x2="555.8" y2="634.3" stroke="#5a5631" stroke-width="1.4"/><line x1="491.8" y1="593.1" x2="517.0" y2="656.6" stroke="#5a5631" stroke-width="1.4"/><line x1="474.5" y1="596.4" x2="474.4" y2="659.0" stroke="#5a5631" stroke-width="1.4"/><line x1="456.3" y1="592.6" x2="431.1" y2="651.8" stroke="#5a5631" stroke-width="1.4"/><line x1="440.7" y1="581.8" x2="395.3" y2="624.9" stroke="#5a5631" stroke-width="1.4"/><line x1="431.3" y1="567.2" x2="374.4" y2="590.3" stroke="#5a5631" stroke-width="1.4"/><line x1="427.8" y1="549.6" x2="369.7" y2="549.4" stroke="#5a5631" stroke-width="1.4"/><line x1="431.4" y1="531.7" x2="380.3" y2="510.4" stroke="#5a5631" stroke-width="1.4"/><line x1="442.5" y1="515.7" x2="399.6" y2="470.4" stroke="#5a5631" stroke-width="1.4"/><line x1="457.8" y1="506.0" x2="430.6" y2="435.7" stroke="#5a5631" stroke-width="1.4"/><line x1="475.7" y1="502.9" x2="477.1" y2="440.6" stroke="#5a5631" stroke-width="1.4"/><line x1="492.8" y1="506.6" x2="516.6" y2="450.6" stroke="#5a5631" stroke-width="1.4"/><line x1="508.6" y1="517.6" x2="560.9" y2="468.1" stroke="#5a5631" stroke-width="1.4"/><line x1="518.0" y1="532.3" x2="578.0" y2="508.2" stroke="#5a5631" stroke-width="1.4"/><circle cx="269.6" cy="371.7" r="44.5" fill="rgba(47,138,122,0.3)" stroke="#101820" stroke-width="1.2"/><circle cx="269.6" cy="371.7" r="16.2" fill="rgba(16,24,32,0.5)"/><line x1="314.1" y1="372.5" x2="378.1" y2="373.8" stroke="#1c4644" stroke-width="1.4"/><line x1="310.3" y1="389.6" x2="369.7" y2="415.8" stroke="#1c4644" stroke-width="1.4"/><line x1="300.4" y1="403.8" x2="338.3" y2="443.3" stroke="#1c4644" stroke-width="1.4"/><line x1="286.0" y1="413.1" x2="312.2" y2="479.1" stroke="#1c4644" stroke-width="1.4"/><line x1="269.2" y1="416.2" x2="268.6" y2="475.3" stroke="#1c4644" stroke-width="1.4"/><line x1="251.5" y1="412.4" x2="222.4" y2="477.8" stroke="#1c4644" stroke-width="1.4"/><line x1="237.3" y1="402.4" x2="193.4" y2="444.3" stroke="#1c4644" stroke-width="1.4"/><line x1="228.0" y1="387.7" x2="178.0" y2="406.9" stroke="#1c4644" stroke-width="1.4"/><line x1="225.1" y1="370.4" x2="168.4" y2="368.9" stroke="#1c4644" stroke-width="1.4"/><line x1="228.6" y1="354.3" x2="162.9" y2="326.4" stroke="#1c4644" stroke-width="1.4"/><line x1="238.1" y1="340.2" x2="200.2" y2="302.2" stroke="#1c4644" stroke-width="1.4"/><line x1="253.5" y1="330.1" x2="227.6" y2="263.5" stroke="#1c4644" stroke-width="1.4"/><line x1="269.7" y1="327.1" x2="269.8" y2="270.4" stroke="#1c4644" stroke-width="1.4"/><line x1="287.9" y1="331.0" x2="316.8" y2="266.7" stroke="#1c4644" stroke-width="1.4"/><line x1="301.2" y1="340.3" x2="341.7" y2="300.0" stroke="#1c4644" stroke-width="1.4"/><line x1="311.0" y1="355.4" x2="368.2" y2="333.0" stroke="#1c4644" stroke-width="1.4"/><circle cx="671.2" cy="373.1" r="42.3" fill="rgba(224,160,48,0.3)" stroke="#101820" stroke-width="1.2"/><circle cx="671.2" cy="373.1" r="15.4" fill="rgba(16,24,32,0.5)"/><line x1="713.5" y1="374.1" x2="764.2" y2="375.2" stroke="#634e26" stroke-width="1.4"/><line x1="710.1" y1="389.8" x2="759.3" y2="411.0" stroke="#634e26" stroke-width="1.4"/><line x1="700.6" y1="403.6" x2="742.1" y2="446.4" stroke="#634e26" stroke-width="1.4"/><line x1="686.3" y1="412.7" x2="705.1" y2="462.0" stroke="#634e26" stroke-width="1.4"/><line x1="670.0" y1="415.5" x2="668.3" y2="476.4" stroke="#634e26" stroke-width="1.4"/><line x1="653.8" y1="411.8" x2="631.5" y2="461.7" stroke="#634e26" stroke-width="1.4"/><line x1="640.9" y1="402.8" x2="597.0" y2="446.0" stroke="#634e26" stroke-width="1.4"/><line x1="631.9" y1="389.0" x2="569.1" y2="414.3" stroke="#634e26" stroke-width="1.4"/><line x1="628.8" y1="373.0" x2="573.7" y2="372.7" stroke="#634e26" stroke-width="1.4"/><line x1="632.0" y1="356.9" x2="584.3" y2="337.1" stroke="#634e26" stroke-width="1.4"/><line x1="642.0" y1="342.4" x2="606.2" y2="304.7" stroke="#634e26" stroke-width="1.4"/><line x1="655.3" y1="333.9" x2="629.9" y2="270.7" stroke="#634e26" stroke-width="1.4"/><line x1="672.0" y1="330.8" x2="673.3" y2="266.5" stroke="#634e26" stroke-width="1.4"/><line x1="688.5" y1="334.5" x2="712.4" y2="281.3" stroke="#634e26" stroke-width="1.4"/><line x1="701.9" y1="344.0" x2="742.0" y2="306.0" stroke="#634e26" stroke-width="1.4"/><line x1="710.7" y1="358.1" x2="764.0" y2="337.8" stroke="#634e26" stroke-width="1.4"/><circle cx="412.6" cy="482.6" r="40.1" fill="rgba(61,138,90,0.3)" stroke="#101820" stroke-width="1.2"/><circle cx="412.6" cy="482.6" r="14.6" fill="rgba(16,24,32,0.5)"/><line x1="452.7" y1="483.4" x2="506.4" y2="484.6" stroke="#224637" stroke-width="1.4"/><line x1="449.2" y1="499.0" x2="499.1" y2="521.3" stroke="#224637" stroke-width="1.4"/><line x1="440.3" y1="511.6" x2="484.7" y2="558.1" stroke="#224637" stroke-width="1.4"/><line x1="427.8" y1="519.7" x2="449.4" y2="572.5" stroke="#224637" stroke-width="1.4"/><line x1="412.3" y1="522.7" x2="411.8" y2="585.3" stroke="#224637" stroke-width="1.4"/><line x1="397.0" y1="519.6" x2="373.5" y2="575.1" stroke="#224637" stroke-width="1.4"/><line x1="383.5" y1="510.3" x2="343.9" y2="548.1" stroke="#224637" stroke-width="1.4"/><line x1="375.1" y1="497.1" x2="318.7" y2="519.0" stroke="#224637" stroke-width="1.4"/><line x1="372.4" y1="481.6" x2="323.9" y2="480.3" stroke="#224637" stroke-width="1.4"/><line x1="375.8" y1="466.3" x2="324.0" y2="443.4" stroke="#224637" stroke-width="1.4"/><line x1="384.6" y1="453.7" x2="345.2" y2="413.0" stroke="#224637" stroke-width="1.4"/><line x1="397.2" y1="445.5" x2="375.6" y2="393.2" stroke="#224637" stroke-width="1.4"/><line x1="412.7" y1="442.4" x2="412.8" y2="380.3" stroke="#224637" stroke-width="1.4"/><line x1="428.5" y1="445.7" x2="452.4" y2="390.1" stroke="#224637" stroke-width="1.4"/><line x1="441.4" y1="454.7" x2="484.1" y2="413.4" stroke="#224637" stroke-width="1.4"/><line x1="450.1" y1="468.2" x2="504.7" y2="447.3" stroke="#224637" stroke-width="1.4"/><circle cx="409.0" cy="340.5" r="37.9" fill="rgba(196,72,88,0.3)" stroke="#101820" stroke-width="1.2"/><circle cx="409.0" cy="340.5" r="13.8" fill="rgba(16,24,32,0.5)"/><line x1="446.9" y1="340.6" x2="501.9" y2="340.8" stroke="#582b36" stroke-width="1.4"/><line x1="443.7" y1="355.9" x2="484.2" y2="373.9" stroke="#582b36" stroke-width="1.4"/><line x1="435.5" y1="367.6" x2="478.0" y2="411.0" stroke="#582b36" stroke-width="1.4"/><line x1="423.3" y1="375.7" x2="442.9" y2="423.6" stroke="#582b36" stroke-width="1.4"/><line x1="408.5" y1="378.5" x2="407.7" y2="433.2" stroke="#582b36" stroke-width="1.4"/><line x1="394.4" y1="375.5" x2="376.5" y2="418.2" stroke="#582b36" stroke-width="1.4"/><line x1="381.5" y1="366.7" x2="345.8" y2="400.9" stroke="#582b36" stroke-width="1.4"/><line x1="373.7" y1="354.5" x2="317.9" y2="376.7" stroke="#582b36" stroke-width="1.4"/><line x1="371.1" y1="340.0" x2="316.5" y2="339.2" stroke="#582b36" stroke-width="1.4"/><line x1="374.2" y1="325.3" x2="331.5" y2="306.6" stroke="#582b36" stroke-width="1.4"/><line x1="382.6" y1="313.2" x2="341.7" y2="270.9" stroke="#582b36" stroke-width="1.4"/><line x1="395.5" y1="305.1" x2="377.8" y2="258.6" stroke="#582b36" stroke-width="1.4"/><line x1="409.8" y1="302.6" x2="410.8" y2="257.5" stroke="#582b36" stroke-width="1.4"/><line x1="424.3" y1="305.8" x2="448.8" y2="249.9" stroke="#582b36" stroke-width="1.4"/><line x1="436.1" y1="314.0" x2="469.4" y2="281.4" stroke="#582b36" stroke-width="1.4"/><line x1="444.1" y1="326.1" x2="488.6" y2="307.9" stroke="#582b36" stroke-width="1.4"/><circle cx="432.6" cy="448.0" r="66.0" fill="rgba(212,120,58,0.3)" stroke="#101820" stroke-width="1.2"/><circle cx="432.6" cy="448.0" r="24.0" fill="rgba(16,24,32,0.5)"/><line x1="498.6" y1="449.5" x2="580.8" y2="451.5" stroke="#5e3e2a" stroke-width="1.4"/><line x1="493.5" y1="473.5" x2="579.6" y2="509.8" stroke="#5e3e2a" stroke-width="1.4"/><line x1="477.9" y1="496.0" x2="542.0" y2="563.9" stroke="#5e3e2a" stroke-width="1.4"/><line x1="456.4" y1="509.5" x2="487.2" y2="589.6" stroke="#5e3e2a" stroke-width="1.4"/><line x1="431.4" y1="514.0" x2="429.8" y2="593.8" stroke="#5e3e2a" stroke-width="1.4"/><line x1="407.3" y1="508.9" x2="371.3" y2="595.2" stroke="#5e3e2a" stroke-width="1.4"/><line x1="384.8" y1="493.4" x2="313.1" y2="561.5" stroke="#5e3e2a" stroke-width="1.4"/><line x1="370.9" y1="471.4" x2="283.9" y2="504.6" stroke="#5e3e2a" stroke-width="1.4"/><line x1="366.6" y1="446.2" x2="287.4" y2="444.1" stroke="#5e3e2a" stroke-width="1.4"/><line x1="371.8" y1="422.4" x2="280.9" y2="384.2" stroke="#5e3e2a" stroke-width="1.4"/><line x1="386.1" y1="401.1" x2="329.9" y2="344.4" stroke="#5e3e2a" stroke-width="1.4"/><line x1="407.4" y1="387.0" x2="376.7" y2="312.3" stroke="#5e3e2a" stroke-width="1.4"/><line x1="434.1" y1="382.0" x2="436.3" y2="281.4" stroke="#5e3e2a" stroke-width="1.4"/><line x1="459.4" y1="387.6" x2="499.4" y2="297.5" stroke="#5e3e2a" stroke-width="1.4"/><line x1="480.3" y1="402.3" x2="544.2" y2="341.0" stroke="#5e3e2a" stroke-width="1.4"/><line x1="493.9" y1="423.5" x2="587.3" y2="386.3" stroke="#5e3e2a" stroke-width="1.4"/><circle cx="286.0" cy="404.4" r="3.0" fill="rgba(212,120,58,0.38)"/><circle cx="329.4" cy="434.8" r="2.0" fill="rgba(122,154,60,0.38)"/><circle cx="286.0" cy="303.2" r="3.6" fill="rgba(201,180,74,0.38)"/><circle cx="317.5" cy="434.8" r="1.9" fill="rgba(47,138,122,0.38)"/><circle cx="131.5" cy="465.2" r="3.2" fill="rgba(224,160,48,0.38)"/><circle cx="442.9" cy="525.9" r="3.0" fill="rgba(61,138,90,0.38)"/><circle cx="351.2" cy="434.8" r="2.1" fill="rgba(196,72,88,0.38)"/><circle cx="451.6" cy="283.0" r="3.2" fill="rgba(212,120,58,0.38)"/><circle cx="357.0" cy="283.0" r="3.1" fill="rgba(122,154,60,0.38)"/><circle cx="847.4" cy="475.3" r="1.0" fill="rgba(201,180,74,0.38)"/><circle cx="434.2" cy="414.6" r="2.6" fill="rgba(47,138,122,0.38)"/><circle cx="513.1" cy="414.6" r="3.1" fill="rgba(224,160,48,0.38)"/><circle cx="841.1" cy="394.3" r="3.1" fill="rgba(61,138,90,0.38)"/><circle cx="822.2" cy="525.9" r="3.0" fill="rgba(196,72,88,0.38)"/><circle cx="363.8" cy="434.8" r="1.9" fill="rgba(212,120,58,0.38)"/><circle cx="434.2" cy="424.7" r="2.6" fill="rgba(122,154,60,0.38)"/><circle cx="68.4" cy="465.2" r="3.0" fill="rgba(201,180,74,0.38)"/><circle cx="362.5" cy="313.3" r="3.0" fill="rgba(47,138,122,0.38)"/><circle cx="167.7" cy="353.8" r="3.0" fill="rgba(224,160,48,0.38)"/><circle cx="94.4" cy="283.0" r="3.2" fill="rgba(61,138,90,0.38)"/><circle cx="327.8" cy="434.8" r="2.3" fill="rgba(196,72,88,0.38)"/><circle cx="337.3" cy="546.2" r="3.2" fill="rgba(212,120,58,0.38)"/><circle cx="544.6" cy="455.1" r="3.2" fill="rgba(122,154,60,0.38)"/><circle cx="402.7" cy="718.3" r="3.2" fill="rgba(201,180,74,0.38)"/><circle cx="860.0" cy="566.4" r="0.9" fill="rgba(47,138,122,0.38)"/><circle cx="487.8" cy="475.3" r="3.0" fill="rgba(224,160,48,0.38)"/><circle cx="414.0" cy="414.6" r="1.4" fill="rgba(61,138,90,0.38)"/><circle cx="209.5" cy="475.3" r="3.2" fill="rgba(196,72,88,0.38)"/><circle cx="502.8" cy="424.7" r="3.0" fill="rgba(212,120,58,0.38)"/><circle cx="595.1" cy="515.8" r="3.0" fill="rgba(122,154,60,0.38)"/><circle cx="140.9" cy="546.2" r="3.8" fill="rgba(201,180,74,0.38)"/><circle cx="42.4" cy="515.8" r="3.1" fill="rgba(47,138,122,0.38)"/><circle cx="447.6" cy="353.8" r="3.0" fill="rgba(224,160,48,0.38)"/><circle cx="759.1" cy="525.9" r="3.0" fill="rgba(61,138,90,0.38)"/><circle cx="834.8" cy="424.7" r="3.1" fill="rgba(196,72,88,0.38)"/><circle cx="273.4" cy="434.8" r="2.9" fill="rgba(212,120,58,0.38)"/><circle cx="578.5" cy="434.8" r="3.1" fill="rgba(122,154,60,0.38)"/><circle cx="317.5" cy="708.1" r="3.0" fill="rgba(201,180,74,0.38)"/><circle cx="460.2" cy="252.6" r="3.1" fill="rgba(47,138,122,0.38)"/><circle cx="518.6" cy="596.8" r="3.1" fill="rgba(224,160,48,0.38)"/><circle cx="317.5" cy="515.8" r="3.0" fill="rgba(61,138,90,0.38)"/><circle cx="443.7" cy="424.7" r="3.0" fill="rgba(196,72,88,0.38)"/><circle cx="352.2" cy="434.8" r="3.2" fill="rgba(212,120,58,0.38)"/><circle cx="511.5" cy="515.8" r="3.0" fill="rgba(122,154,60,0.38)"/><circle cx="355.4" cy="404.4" r="3.2" fill="rgba(201,180,74,0.38)"/><circle cx="664.5" cy="475.3" r="3.0" fill="rgba(47,138,122,0.38)"/><circle cx="409.8" cy="404.4" r="3.1" fill="rgba(224,160,48,0.38)"/><circle cx="809.5" cy="475.3" r="1.1" fill="rgba(61,138,90,0.38)"/><circle cx="461.8" cy="353.8" r="3.2" fill="rgba(196,72,88,0.38)"/><circle cx="317.5" cy="596.8" r="3.0" fill="rgba(212,120,58,0.38)"/><circle cx="390.1" cy="424.7" r="2.5" fill="rgba(122,154,60,0.38)"/><circle cx="603.8" cy="394.3" r="3.1" fill="rgba(201,180,74,0.38)"/><circle cx="187.4" cy="394.3" r="3.1" fill="rgba(47,138,122,0.38)"/><circle cx="544.6" cy="444.9" r="3.0" fill="rgba(224,160,48,0.38)"/><circle cx="52.6" cy="374.1" r="3.7" fill="rgba(61,138,90,0.38)"/><circle cx="169.3" cy="444.9" r="3.0" fill="rgba(196,72,88,0.38)"/><circle cx="405.8" cy="424.7" r="2.7" fill="rgba(212,120,58,0.38)"/><circle cx="477.6" cy="404.4" r="3.0" fill="rgba(122,154,60,0.38)"/><circle cx="433.4" cy="272.8" r="3.0" fill="rgba(201,180,74,0.38)"/><circle cx="453.9" cy="252.6" r="3.0" fill="rgba(47,138,122,0.38)"/><circle cx="140.9" cy="525.9" r="3.2" fill="rgba(224,160,48,0.38)"/><circle cx="166.2" cy="475.3" r="3.1" fill="rgba(61,138,90,0.38)"/><circle cx="544.6" cy="404.4" r="3.2" fill="rgba(196,72,88,0.38)"/><circle cx="393.2" cy="475.3" r="3.2" fill="rgba(212,120,58,0.38)"/><circle cx="317.5" cy="617.0" r="3.6" fill="rgba(122,154,60,0.38)"/><circle cx="335.7" cy="353.8" r="3.1" fill="rgba(201,180,74,0.38)"/><circle cx="159.1" cy="475.3" r="3.1" fill="rgba(47,138,122,0.38)"/><circle cx="444.5" cy="353.8" r="3.1" fill="rgba(224,160,48,0.38)"/><circle cx="828.5" cy="424.7" r="3.2" fill="rgba(61,138,90,0.38)"/><circle cx="360.9" cy="424.7" r="3.0" fill="rgba(196,72,88,0.38)"/><circle cx="828.5" cy="404.4" r="1.1" fill="rgba(212,120,58,0.38)"/><circle cx="355.4" cy="232.3" r="3.2" fill="rgba(122,154,60,0.38)"/><circle cx="670.8" cy="353.8" r="3.1" fill="rgba(201,180,74,0.38)"/><circle cx="40.0" cy="566.4" r="3.2" fill="rgba(47,138,122,0.38)"/><circle cx="733.8" cy="596.8" r="3.0" fill="rgba(224,160,48,0.38)"/><circle cx="286.8" cy="434.8" r="2.4" fill="rgba(61,138,90,0.38)"/><circle cx="340.4" cy="272.8" r="3.1" fill="rgba(196,72,88,0.38)"/><circle cx="191.4" cy="161.5" r="3.1" fill="rgba(212,120,58,0.38)"/><circle cx="303.3" cy="434.8" r="3.1" fill="rgba(122,154,60,0.38)"/><circle cx="58.9" cy="252.6" r="3.1" fill="rgba(201,180,74,0.38)"/><circle cx="784.3" cy="576.5" r="1.0" fill="rgba(47,138,122,0.38)"/><circle cx="40.0" cy="718.3" r="3.8" fill="rgba(224,160,48,0.38)"/><circle cx="413.7" cy="515.8" r="3.2" fill="rgba(61,138,90,0.38)"/><circle cx="355.4" cy="596.8" r="3.7" fill="rgba(196,72,88,0.38)"/><circle cx="254.5" cy="353.8" r="3.1" fill="rgba(212,120,58,0.38)"/><circle cx="771.7" cy="495.6" r="1.1" fill="rgba(122,154,60,0.38)"/><circle cx="378.3" cy="232.3" r="3.1" fill="rgba(201,180,74,0.38)"/><circle cx="860.0" cy="455.1" r="1.2" fill="rgba(47,138,122,0.38)"/><circle cx="318.3" cy="434.8" r="3.1" fill="rgba(224,160,48,0.38)"/><circle cx="76.3" cy="475.3" r="3.1" fill="rgba(61,138,90,0.38)"/><circle cx="40.0" cy="303.2" r="3.7" fill="rgba(196,72,88,0.38)"/><circle cx="267.1" cy="394.3" r="3.2" fill="rgba(212,120,58,0.38)"/><circle cx="41.6" cy="161.5" r="3.7" fill="rgba(122,154,60,0.38)"/><path d="M 20.0 20.0 Q 83.3 43.0, 115.3 22.7" fill="none" stroke="rgba(176,128,216,0.28)" stroke-width="1.8"/><path d="M 20.0 20.0 Q 77.1 87.3, 121.1 112.6" fill="none" stroke="rgba(176,128,216,0.28)" stroke-width="1.8"/><path d="M 858.7 632.6 Q 842.9 658.7, 880.0 632.6" fill="none" stroke="rgba(176,128,216,0.28)" stroke-width="1.8"/><path d="M 551.5 675.9 Q 590.6 645.8, 572.8 675.9" fill="none" stroke="rgba(176,128,216,0.28)" stroke-width="1.8"/><path d="M 523.2 101.2 Q 594.5 123.8, 584.3 102.3" fill="none" stroke="rgba(176,128,216,0.28)" stroke-width="1.8"/><path d="M 222.1 108.3 Q 220.6 76.7, 268.2 108.3" fill="none" stroke="rgba(176,128,216,0.28)" stroke-width="1.8"/><path d="M 376.4 473.0 Q 366.2 492.2, 399.8 471.6" fill="none" stroke="rgba(176,128,216,0.28)" stroke-width="1.8"/><path d="M 569.7 805.0 Q 577.6 789.1, 591.0 805.0" fill="none" stroke="rgba(176,128,216,0.28)" stroke-width="1.8"/>
  <rect width="900" height="900" filter="url(#hbhaeckel-grain)" opacity="0.16" style="pointer-events:none"/>
  <rect width="900" height="900" fill="url(#hbhaeckel-vig)" style="pointer-events:none"/>
</svg>