<?xml version="1.0" encoding="UTF-8"?>
<svg xmlns="http://www.w3.org/2000/svg" width="900" height="900" viewBox="0 0 900 900" role="img" data-cover="1" data-cover-state="vine">
  <defs>
    <filter id="hbvoucher-grain" x="0" y="0" width="100%" height="100%">
    <feTurbulence type="fractalNoise" baseFrequency="0.72" numOctaves="3" stitchTiles="stitch" result="n"/>
    <feColorMatrix type="saturate" values="0" in="n" result="g"/>
    <feComponentTransfer in="g">
      <feFuncA type="table" tableValues="0 0.55"/>
    </feComponentTransfer>
  </filter>
    <radialGradient id="hbvoucher-vig" cx="50%" cy="46%" r="72%">
    <stop offset="42%" stop-color="#8b887d" stop-opacity="0"/>
    <stop offset="100%" stop-color="#8b887d" stop-opacity="0.42"/>
  </radialGradient>
    
  </defs>
  <rect width="900" height="900" fill="#141610"/>
  <ellipse cx="505.2" cy="357.3" rx="540" ry="380" fill="rgba(120,84,54,0.5)"/>
  <ellipse cx="394.8" cy="792.0" rx="420" ry="280" fill="rgba(18,20,15,0.4)"/><ellipse cx="505.2" cy="342.0" rx="380" ry="220" fill="rgba(212,120,58,0.2)"/><path d="M 80.0 236.8 Q 115.5 -3.1, 64.5 -293.5 Q 30.6 -0.6, 80.0 236.8 Z" fill="rgba(230,224,208,0.8)" stroke="none" stroke-width="0.6"/><path d="M 276.0 303.8 Q 494.3 177.7, 697.9 -51.5 Q 437.4 110.2, 276.0 303.8 Z" fill="rgba(230,224,208,0.8)" stroke="none" stroke-width="0.6"/><path d="M 472.0 453.7 Q 712.9 548.8, 1027.2 566.3 Q 730.9 459.9, 472.0 453.7 Z" fill="rgba(230,224,208,0.8)" stroke="none" stroke-width="0.6"/><path d="M 668.0 601.6 Q 746.1 858.7, 934.6 1125.5 Q 829.9 816.0, 668.0 601.6 Z" fill="rgba(230,224,208,0.8)" stroke="none" stroke-width="0.6"/><circle cx="268.5" cy="527.4" r="3.2" fill="rgba(212,120,58,0.46)"/><circle cx="58.2" cy="597.0" r="2.7" fill="rgba(224,160,48,0.46)"/><circle cx="48.6" cy="589.2" r="2.6" fill="rgba(122,154,60,0.46)"/><circle cx="322.3" cy="279.8" r="3.0" fill="rgba(61,138,90,0.46)"/><circle cx="65.0" cy="279.8" r="2.7" fill="rgba(47,122,138,0.46)"/><circle cx="49.6" cy="372.6" r="2.8" fill="rgba(74,88,176,0.46)"/><circle cx="49.6" cy="581.5" r="3.1" fill="rgba(138,58,144,0.46)"/><circle cx="260.8" cy="264.3" r="3.0" fill="rgba(212,120,58,0.46)"/><circle cx="46.7" cy="318.5" r="2.6" fill="rgba(224,160,48,0.46)"/><circle cx="67.8" cy="589.2" r="2.7" fill="rgba(122,154,60,0.46)"/><circle cx="662.2" cy="225.7" r="3.1" fill="rgba(61,138,90,0.46)"/><circle cx="306.9" cy="287.5" r="3.2" fill="rgba(47,122,138,0.46)"/><circle cx="785.1" cy="465.5" r="3.0" fill="rgba(74,88,176,0.46)"/><circle cx="683.3" cy="210.2" r="3.1" fill="rgba(138,58,144,0.46)"/><circle cx="704.4" cy="310.8" r="3.1" fill="rgba(212,120,58,0.46)"/><circle cx="408.7" cy="210.2" r="3.2" fill="rgba(224,160,48,0.46)"/><circle cx="40.0" cy="357.2" r="2.6" fill="rgba(122,154,60,0.46)"/><circle cx="439.4" cy="450.0" r="3.1" fill="rgba(61,138,90,0.46)"/><circle cx="50.6" cy="558.3" r="2.6" fill="rgba(47,122,138,0.46)"/><circle cx="61.1" cy="411.3" r="2.7" fill="rgba(74,88,176,0.46)"/><circle cx="40.0" cy="318.5" r="3.2" fill="rgba(138,58,144,0.46)"/><circle cx="66.9" cy="334.0" r="2.7" fill="rgba(212,120,58,0.46)"/><circle cx="53.4" cy="349.4" r="2.6" fill="rgba(224,160,48,0.46)"/><circle cx="55.4" cy="411.3" r="2.6" fill="rgba(122,154,60,0.46)"/><circle cx="63.0" cy="357.2" r="2.6" fill="rgba(61,138,90,0.46)"/><circle cx="487.4" cy="264.3" r="3.1" fill="rgba(47,122,138,0.46)"/><circle cx="785.1" cy="303.0" r="3.0" fill="rgba(74,88,176,0.46)"/><circle cx="764.0" cy="279.8" r="3.0" fill="rgba(138,58,144,0.46)"/><circle cx="67.4" cy="550.6" r="2.4" fill="rgba(212,120,58,0.46)"/><circle cx="252.2" cy="187.0" r="3.1" fill="rgba(224,160,48,0.46)"/><circle cx="531.6" cy="473.2" r="3.0" fill="rgba(122,154,60,0.46)"/><circle cx="792.8" cy="419.1" r="2.6" fill="rgba(61,138,90,0.46)"/><circle cx="831.2" cy="504.2" r="2.2" fill="rgba(47,122,138,0.46)"/><circle cx="47.7" cy="349.4" r="2.7" fill="rgba(74,88,176,0.46)"/><circle cx="823.5" cy="419.1" r="2.8" fill="rgba(138,58,144,0.46)"/><circle cx="40.5" cy="550.6" r="2.4" fill="rgba(212,120,58,0.46)"/><circle cx="327.1" cy="187.0" r="3.2" fill="rgba(224,160,48,0.46)"/><circle cx="56.3" cy="279.8" r="2.7" fill="rgba(122,154,60,0.46)"/><circle cx="47.7" cy="318.5" r="2.7" fill="rgba(61,138,90,0.46)"/><circle cx="68.8" cy="334.0" r="2.8" fill="rgba(47,122,138,0.46)"/><circle cx="41.9" cy="597.0" r="2.9" fill="rgba(74,88,176,0.46)"/><circle cx="660.3" cy="372.6" r="3.2" fill="rgba(138,58,144,0.46)"/><circle cx="55.4" cy="411.3" r="2.8" fill="rgba(212,120,58,0.46)"/><circle cx="604.6" cy="210.2" r="3.2" fill="rgba(224,160,48,0.46)"/><circle cx="631.5" cy="411.3" r="2.8" fill="rgba(122,154,60,0.46)"/><circle cx="802.4" cy="210.2" r="3.1" fill="rgba(61,138,90,0.46)"/><circle cx="45.8" cy="357.2" r="2.8" fill="rgba(47,122,138,0.46)"/><circle cx="168.7" cy="287.5" r="3.1" fill="rgba(74,88,176,0.46)"/><circle cx="734.2" cy="264.3" r="3.0" fill="rgba(138,58,144,0.46)"/><circle cx="40.0" cy="411.3" r="3.0" fill="rgba(212,120,58,0.46)"/><circle cx="63.0" cy="279.8" r="2.8" fill="rgba(224,160,48,0.46)"/><circle cx="810.1" cy="264.3" r="3.0" fill="rgba(122,154,60,0.46)"/><circle cx="424.1" cy="318.5" r="3.1" fill="rgba(61,138,90,0.46)"/><circle cx="838.9" cy="465.5" r="2.9" fill="rgba(47,122,138,0.46)"/><circle cx="55.4" cy="357.2" r="2.7" fill="rgba(74,88,176,0.46)"/><circle cx="48.2" cy="318.5" r="2.7" fill="rgba(138,58,144,0.46)"/><circle cx="70.7" cy="411.3" r="2.7" fill="rgba(212,120,58,0.46)"/><circle cx="51.5" cy="395.8" r="2.6" fill="rgba(224,160,48,0.46)"/><circle cx="40.0" cy="334.0" r="2.6" fill="rgba(122,154,60,0.46)"/><circle cx="59.2" cy="597.0" r="2.7" fill="rgba(61,138,90,0.46)"/><circle cx="40.0" cy="388.1" r="2.8" fill="rgba(47,122,138,0.46)"/><circle cx="58.2" cy="318.5" r="2.6" fill="rgba(74,88,176,0.46)"/><circle cx="68.8" cy="279.8" r="2.7" fill="rgba(138,58,144,0.46)"/><circle cx="185.9" cy="287.5" r="1.9" fill="rgba(212,120,58,0.46)"/><circle cx="47.7" cy="349.4" r="2.8" fill="rgba(224,160,48,0.46)"/><circle cx="201.3" cy="303.0" r="1.8" fill="rgba(122,154,60,0.46)"/><circle cx="493.2" cy="341.7" r="3.2" fill="rgba(61,138,90,0.46)"/><circle cx="306.9" cy="287.5" r="3.0" fill="rgba(47,122,138,0.46)"/><circle cx="838.9" cy="411.3" r="2.6" fill="rgba(74,88,176,0.46)"/><circle cx="552.7" cy="372.6" r="3.1" fill="rgba(138,58,144,0.46)"/><circle cx="669.9" cy="233.4" r="3.2" fill="rgba(212,120,58,0.46)"/><circle cx="436.6" cy="318.5" r="2.5" fill="rgba(224,160,48,0.46)"/><circle cx="860.0" cy="187.0" r="3.1" fill="rgba(122,154,60,0.46)"/><circle cx="67.4" cy="550.6" r="2.4" fill="rgba(61,138,90,0.46)"/><circle cx="788.9" cy="225.7" r="3.2" fill="rgba(47,122,138,0.46)"/><circle cx="201.3" cy="488.7" r="2.7" fill="rgba(74,88,176,0.46)"/><circle cx="69.4" cy="318.5" r="2.7" fill="rgba(138,58,144,0.46)"/><circle cx="669.9" cy="395.8" r="3.1" fill="rgba(212,120,58,0.46)"/><circle cx="61.1" cy="357.2" r="2.6" fill="rgba(224,160,48,0.46)"/><circle cx="58.2" cy="597.0" r="2.5" fill="rgba(122,154,60,0.46)"/><circle cx="320.4" cy="272.1" r="3.1" fill="rgba(61,138,90,0.46)"/><circle cx="59.2" cy="357.2" r="2.5" fill="rgba(47,122,138,0.46)"/><circle cx="60.2" cy="318.5" r="2.6" fill="rgba(74,88,176,0.46)"/><circle cx="55.4" cy="334.0" r="2.7" fill="rgba(138,58,144,0.46)"/><circle cx="731.3" cy="233.4" r="3.0" fill="rgba(212,120,58,0.46)"/><circle cx="311.7" cy="527.4" r="3.1" fill="rgba(224,160,48,0.46)"/><circle cx="69.8" cy="303.0" r="3.2" fill="rgba(122,154,60,0.46)"/><circle cx="55.4" cy="388.1" r="2.5" fill="rgba(61,138,90,0.46)"/><circle cx="55.4" cy="357.2" r="2.7" fill="rgba(47,122,138,0.46)"/><circle cx="40.0" cy="388.1" r="2.7" fill="rgba(74,88,176,0.46)"/><circle cx="56.3" cy="597.0" r="2.6" fill="rgba(138,58,144,0.46)"/><circle cx="308.9" cy="287.5" r="3.1" fill="rgba(212,120,58,0.46)"/><circle cx="45.8" cy="411.3" r="2.8" fill="rgba(224,160,48,0.46)"/><circle cx="64.0" cy="256.6" r="2.7" fill="rgba(122,154,60,0.46)"/><circle cx="55.4" cy="233.4" r="3.2" fill="rgba(61,138,90,0.46)"/><circle cx="717.9" cy="264.3" r="3.1" fill="rgba(47,122,138,0.46)"/><circle cx="40.0" cy="334.0" r="2.8" fill="rgba(74,88,176,0.46)"/><circle cx="792.8" cy="264.3" r="3.0" fill="rgba(138,58,144,0.46)"/><circle cx="854.2" cy="419.1" r="2.6" fill="rgba(212,120,58,0.46)"/><circle cx="50.6" cy="550.6" r="2.4" fill="rgba(224,160,48,0.46)"/><circle cx="253.2" cy="511.9" r="3.0" fill="rgba(122,154,60,0.46)"/><circle cx="55.4" cy="357.2" r="2.8" fill="rgba(61,138,90,0.46)"/><circle cx="59.7" cy="550.6" r="2.6" fill="rgba(47,122,138,0.46)"/><circle cx="63.0" cy="357.2" r="2.8" fill="rgba(74,88,176,0.46)"/><circle cx="649.7" cy="187.0" r="3.1" fill="rgba(138,58,144,0.46)"/><circle cx="669.9" cy="187.0" r="3.1" fill="rgba(212,120,58,0.46)"/><circle cx="449.0" cy="318.5" r="2.5" fill="rgba(224,160,48,0.46)"/><circle cx="56.3" cy="279.8" r="2.7" fill="rgba(122,154,60,0.46)"/><circle cx="40.0" cy="597.0" r="2.6" fill="rgba(61,138,90,0.46)"/><circle cx="783.2" cy="372.6" r="3.0" fill="rgba(47,122,138,0.46)"/><circle cx="408.7" cy="341.7" r="3.1" fill="rgba(74,88,176,0.46)"/><circle cx="539.3" cy="504.2" r="2.6" fill="rgba(138,58,144,0.46)"/><path d="M 550.9 327.4 Q 581.4 398.3, 591.9 386.0" fill="none" stroke="rgba(176,128,216,0.28)" stroke-width="1.8"/><path d="M 159.1 261.7 Q 216.2 269.4, 208.2 261.7" fill="none" stroke="rgba(176,128,216,0.28)" stroke-width="1.8"/><path d="M 702.5 704.7 Q 693.8 666.9, 732.5 545.3" fill="none" stroke="rgba(176,128,216,0.28)" stroke-width="1.8"/><path d="M 439.7 802.5 Q 439.9 813.1, 488.9 802.5" fill="none" stroke="rgba(176,128,216,0.28)" stroke-width="1.8"/><path d="M 125.9 261.7 Q 161.6 243.9, 159.1 261.7" fill="none" stroke="rgba(176,128,216,0.28)" stroke-width="1.8"/><path d="M 297.4 265.2 Q 296.8 306.1, 346.5 264.0" fill="none" stroke="rgba(176,128,216,0.28)" stroke-width="1.8"/><path d="M 406.5 802.5 Q 398.9 795.4, 439.7 802.5" fill="none" stroke="rgba(176,128,216,0.28)" stroke-width="1.8"/><path d="M 783.0 219.5 Q 835.0 263.4, 868.1 285.7" fill="none" stroke="rgba(176,128,216,0.28)" stroke-width="1.8"/><path d="M 734.4 159.0 Q 756.0 180.1, 776.7 159.2" fill="none" stroke="rgba(176,128,216,0.28)" stroke-width="1.8"/><path d="M 566.9 91.3 Q 586.3 111.8, 584.1 91.3" fill="none" stroke="rgba(176,128,216,0.28)" stroke-width="1.8"/><path d="M 550.9 502.3 Q 608.4 438.2, 591.9 444.2" fill="none" stroke="rgba(176,128,216,0.28)" stroke-width="1.8"/>
  <rect width="900" height="900" filter="url(#hbvoucher-grain)" opacity="0.16" style="pointer-events:none"/>
  <rect width="900" height="900" fill="url(#hbvoucher-vig)" style="pointer-events:none"/>
</svg>