<?xml version="1.0" encoding="UTF-8"?>
<svg xmlns="http://www.w3.org/2000/svg" width="900" height="900" viewBox="0 0 900 900" role="img" data-cover="1">
  <defs>
    <filter id="su-mix-grain" x="0" y="0" width="100%" height="100%">
    <feTurbulence type="fractalNoise" baseFrequency="0.72" numOctaves="3" stitchTiles="stitch" result="n"/>
    <feColorMatrix type="saturate" values="0" in="n" result="g"/>
    <feComponentTransfer in="g">
      <feFuncA type="table" tableValues="0 0.55"/>
    </feComponentTransfer>
  </filter>
    <radialGradient id="su-mix-vig" cx="50%" cy="46%" r="72%">
    <stop offset="42%" stop-color="#8b8477" stop-opacity="0"/>
    <stop offset="100%" stop-color="#8b8477" stop-opacity="0.42"/>
  </radialGradient>
    
  </defs>
  <rect width="900" height="900" fill="#0e0c0a"/>
  <rect x="0" y="0" width="31.634482758620692" height="900" fill="#2e1d12"/><rect x="0" y="72.00000000000011" width="31.634482758620692" height="827.9999999999999" fill="#d4783a"/><rect x="31.03448275862069" y="0" width="31.634482758620692" height="900" fill="#2e1d12"/><rect x="31.03448275862069" y="72.00000000000011" width="31.634482758620692" height="827.9999999999999" fill="#d4783a"/><rect x="62.06896551724138" y="0" width="31.634482758620692" height="900" fill="#2e1d12"/><rect x="62.06896551724138" y="72.00000000000011" width="31.634482758620692" height="827.9999999999999" fill="#d4783a"/><rect x="93.10344827586206" y="0" width="31.634482758620692" height="900" fill="#2e1d12"/><rect x="93.10344827586206" y="72.00000000000011" width="31.634482758620692" height="827.9999999999999" fill="#d4783a"/><rect x="124.13793103448276" y="0" width="31.634482758620692" height="900" fill="#2e1d12"/><rect x="124.13793103448276" y="292.33853999999997" width="31.634482758620692" height="607.66146" fill="#d4783a"/><rect x="155.17241379310346" y="0" width="31.634482758620692" height="900" fill="#1f2312"/><rect x="155.17241379310346" y="72.00000000000011" width="31.634482758620692" height="827.9999999999999" fill="#7a9a3c"/><rect x="186.20689655172413" y="0" width="31.634482758620692" height="900" fill="#2e1d12"/><rect x="186.20689655172413" y="72.00000000000011" width="31.634482758620692" height="827.9999999999999" fill="#d4783a"/><rect x="217.24137931034483" y="0" width="31.634482758620692" height="900" fill="#2e1d12"/><rect x="217.24137931034483" y="72.00000000000011" width="31.634482758620692" height="827.9999999999999" fill="#d4783a"/><rect x="248.27586206896552" y="0" width="31.634482758620692" height="900" fill="#2e1d12"/><rect x="248.27586206896552" y="72.00000000000011" width="31.634482758620692" height="827.9999999999999" fill="#d4783a"/><rect x="279.3103448275862" y="0" width="31.634482758620692" height="900" fill="#2e1d12"/><rect x="279.3103448275862" y="-82.90147500000012" width="31.634482758620692" height="982.9014750000001" fill="#d4783a"/><rect x="310.3448275862069" y="0" width="31.634482758620692" height="900" fill="#2e1d12"/><rect x="310.3448275862069" y="72.00000000000011" width="31.634482758620692" height="827.9999999999999" fill="#d4783a"/><rect x="341.3793103448276" y="0" width="31.634482758620692" height="900" fill="#1f2312"/><rect x="341.3793103448276" y="72.00000000000011" width="31.634482758620692" height="827.9999999999999" fill="#7a9a3c"/><rect x="372.41379310344826" y="0" width="31.634482758620692" height="900" fill="#1f2312"/><rect x="372.41379310344826" y="72.00000000000011" width="31.634482758620692" height="827.9999999999999" fill="#7a9a3c"/><rect x="403.44827586206895" y="0" width="31.634482758620692" height="900" fill="#2c2714"/><rect x="403.44827586206895" y="72.00000000000011" width="31.634482758620692" height="827.9999999999999" fill="#c9b44a"/><rect x="434.48275862068965" y="0" width="31.634482758620692" height="900" fill="#13201c"/><rect x="434.48275862068965" y="72.00000000000011" width="31.634482758620692" height="827.9999999999999" fill="#2f8a7a"/><rect x="465.51724137931035" y="0" width="31.634482758620692" height="900" fill="#2e1d12"/><rect x="465.51724137931035" y="72.00000000000011" width="31.634482758620692" height="827.9999999999999" fill="#d4783a"/><rect x="496.55172413793105" y="0" width="31.634482758620692" height="900" fill="#302410"/><rect x="496.55172413793105" y="72.00000000000011" width="31.634482758620692" height="827.9999999999999" fill="#e0a030"/><rect x="527.5862068965517" y="0" width="31.634482758620692" height="900" fill="#2e1d12"/><rect x="527.5862068965517" y="72.00000000000011" width="31.634482758620692" height="827.9999999999999" fill="#d4783a"/><rect x="558.6206896551724" y="0" width="31.634482758620692" height="900" fill="#2e1d12"/><rect x="558.6206896551724" y="72.00000000000011" width="31.634482758620692" height="827.9999999999999" fill="#d4783a"/><rect x="589.6551724137931" y="0" width="31.634482758620692" height="900" fill="#2e1d12"/><rect x="589.6551724137931" y="72.00000000000011" width="31.634482758620692" height="827.9999999999999" fill="#d4783a"/><rect x="620.6896551724138" y="0" width="31.634482758620692" height="900" fill="#0f0d0b"/><rect x="620.6896551724138" y="72.00000000000011" width="31.634482758620692" height="827.9999999999999" fill="#17120f"/><rect x="651.7241379310345" y="0" width="31.634482758620692" height="900" fill="#13201c"/><rect x="651.7241379310345" y="72.00000000000011" width="31.634482758620692" height="827.9999999999999" fill="#2f8a7a"/><rect x="682.7586206896552" y="0" width="31.634482758620692" height="900" fill="#2e1d12"/><rect x="682.7586206896552" y="72.00000000000011" width="31.634482758620692" height="827.9999999999999" fill="#d4783a"/><rect x="713.7931034482759" y="0" width="31.634482758620692" height="900" fill="#2e1d12"/><rect x="713.7931034482759" y="72.00000000000011" width="31.634482758620692" height="827.9999999999999" fill="#d4783a"/><rect x="744.8275862068965" y="0" width="31.634482758620692" height="900" fill="#2c2714"/><rect x="744.8275862068965" y="72.00000000000011" width="31.634482758620692" height="827.9999999999999" fill="#c9b44a"/><rect x="775.8620689655172" y="0" width="31.634482758620692" height="900" fill="#1f2312"/><rect x="775.8620689655172" y="72.00000000000011" width="31.634482758620692" height="827.9999999999999" fill="#7a9a3c"/><rect x="806.8965517241379" y="0" width="31.634482758620692" height="900" fill="#162017"/><rect x="806.8965517241379" y="72.00000000000011" width="31.634482758620692" height="827.9999999999999" fill="#3d8a5a"/><rect x="837.9310344827586" y="0" width="31.634482758620692" height="900" fill="#13201c"/><rect x="837.9310344827586" y="72.00000000000011" width="31.634482758620692" height="827.9999999999999" fill="#2f8a7a"/><rect x="868.9655172413793" y="0" width="31.634482758620692" height="900" fill="#2e1d12"/><rect x="868.9655172413793" y="72.00000000000011" width="31.634482758620692" height="827.9999999999999" fill="#d4783a"/><rect x="527.5862068965517" y="0" width="124.13793103448279" height="54" fill="rgba(242,230,208,0.2)"/><rect x="651.7241379310345" y="0" width="124.13793103448268" height="54" fill="rgba(242,230,208,0.2)"/><rect x="186.20689655172413" y="0" width="341.3793103448276" height="54" fill="rgba(242,230,208,0.2)"/><rect x="310.3448275862069" y="0" width="93.10344827586204" height="54" fill="rgba(242,230,208,0.2)"/><rect x="682.7586206896552" y="0" width="62.06896551724128" height="54" fill="rgba(242,230,208,0.2)"/><path d="M 636.2068965517242 72 C 636.2068965517242 -20, 884.4827586206897 -20, 884.4827586206897 72" fill="none" stroke="#f2e6d0" stroke-width="3" opacity="0.55"/><path d="M 15.517241379310345 72 C 15.517241379310345 -20, 170.6896551724138 -20, 170.6896551724138 72" fill="none" stroke="#f2e6d0" stroke-width="3" opacity="0.55"/><path d="M 636.2068965517242 72 C 636.2068965517242 -20, 791.3793103448276 -20, 791.3793103448276 72" fill="none" stroke="#f2e6d0" stroke-width="3" opacity="0.55"/><path d="M 636.2068965517242 72 C 636.2068965517242 -20, 822.4137931034483 -20, 822.4137931034483 72" fill="none" stroke="#f2e6d0" stroke-width="3" opacity="0.55"/><path d="M 636.2068965517242 72 C 636.2068965517242 -20, 512.0689655172414 -20, 512.0689655172414 72" fill="none" stroke="#f2e6d0" stroke-width="3" opacity="0.55"/><path d="M 636.2068965517242 72 C 636.2068965517242 -20, 387.9310344827586 -20, 387.9310344827586 72" fill="none" stroke="#f2e6d0" stroke-width="3" opacity="0.55"/><path d="M 15.517241379310345 72 C 15.517241379310345 -20, 450 -20, 450 72" fill="none" stroke="#f2e6d0" stroke-width="3" opacity="0.55"/><path d="M 636.2068965517242 72 C 636.2068965517242 -20, 201.72413793103448 -20, 201.72413793103448 72" fill="none" stroke="#f2e6d0" stroke-width="3" opacity="0.55"/>
  <rect width="900" height="900" filter="url(#su-mix-grain)" opacity="0.16" style="pointer-events:none"/>
  <rect width="900" height="900" fill="url(#su-mix-vig)" style="pointer-events:none"/>
</svg>