<?xml version="1.0" encoding="UTF-8"?>
<svg xmlns="http://www.w3.org/2000/svg" width="900" height="900" viewBox="0 0 900 900" role="img" data-cover="1">
  <defs>
    <filter id="su-plan-grain" x="0" y="0" width="100%" height="100%">
    <feTurbulence type="fractalNoise" baseFrequency="0.72" numOctaves="3" stitchTiles="stitch" result="n"/>
    <feColorMatrix type="saturate" values="0" in="n" result="g"/>
    <feComponentTransfer in="g">
      <feFuncA type="table" tableValues="0 0.55"/>
    </feComponentTransfer>
  </filter>
    <radialGradient id="su-plan-vig" cx="50%" cy="46%" r="72%">
    <stop offset="42%" stop-color="#897e66" stop-opacity="0"/>
    <stop offset="100%" stop-color="#897e66" stop-opacity="0.42"/>
  </radialGradient>
    
  </defs>
  <rect width="900" height="900" fill="#12100c"/>
  <rect x="0" y="702" width="900" height="198" fill="#1f1b13"/><rect x="0" y="711.9" width="31.53448275862069" height="188.1" fill="#d4783a"/><rect x="31.03448275862069" y="711.9" width="31.53448275862069" height="188.1" fill="#d4783a"/><rect x="62.06896551724138" y="711.9" width="31.53448275862069" height="188.1" fill="#d4783a"/><rect x="93.10344827586206" y="711.9" width="31.53448275862069" height="188.1" fill="#d4783a"/><rect x="124.13793103448276" y="770.06937456" width="31.53448275862069" height="129.93062544" fill="#d4783a"/><rect x="155.17241379310346" y="711.9" width="31.53448275862069" height="188.1" fill="#7a9a3c"/><rect x="186.20689655172413" y="711.9" width="31.53448275862069" height="188.1" fill="#d4783a"/><rect x="217.24137931034483" y="711.9" width="31.53448275862069" height="188.1" fill="#d4783a"/><rect x="248.27586206896552" y="711.9" width="31.53448275862069" height="188.1" fill="#d4783a"/><rect x="279.3103448275862" y="671.0060106" width="31.53448275862069" height="228.9939894" fill="#d4783a"/><rect x="310.3448275862069" y="711.9" width="31.53448275862069" height="188.1" fill="#d4783a"/><rect x="341.3793103448276" y="711.9" width="31.53448275862069" height="188.1" fill="#7a9a3c"/><rect x="372.41379310344826" y="711.9" width="31.53448275862069" height="188.1" fill="#7a9a3c"/><rect x="403.44827586206895" y="711.9" width="31.53448275862069" height="188.1" fill="#c9b44a"/><rect x="434.48275862068965" y="711.9" width="31.53448275862069" height="188.1" fill="#2f8a7a"/><rect x="465.51724137931035" y="711.9" width="31.53448275862069" height="188.1" fill="#d4783a"/><rect x="496.55172413793105" y="711.9" width="31.53448275862069" height="188.1" fill="#e0a030"/><rect x="527.5862068965517" y="711.9" width="31.53448275862069" height="188.1" fill="#d4783a"/><rect x="558.6206896551724" y="711.9" width="31.53448275862069" height="188.1" fill="#d4783a"/><rect x="589.6551724137931" y="711.9" width="31.53448275862069" height="188.1" fill="#d4783a"/><rect x="620.6896551724138" y="711.9" width="31.53448275862069" height="188.1" fill="#1c1811"/><rect x="651.7241379310345" y="711.9" width="31.53448275862069" height="188.1" fill="#2f8a7a"/><rect x="682.7586206896552" y="711.9" width="31.53448275862069" height="188.1" fill="#d4783a"/><rect x="713.7931034482759" y="711.9" width="31.53448275862069" height="188.1" fill="#d4783a"/><rect x="744.8275862068965" y="711.9" width="31.53448275862069" height="188.1" fill="#c9b44a"/><rect x="775.8620689655172" y="711.9" width="31.53448275862069" height="188.1" fill="#7a9a3c"/><rect x="806.8965517241379" y="711.9" width="31.53448275862069" height="188.1" fill="#3d8a5a"/><rect x="837.9310344827586" y="711.9" width="31.53448275862069" height="188.1" fill="#2f8a7a"/><rect x="868.9655172413793" y="711.9" width="31.53448275862069" height="188.1" fill="#d4783a"/><path d="M 5.179883376141845 11.91069947589471 L 200.1155834650625 2.9255131039449154 L 249.370785853773 3.240172581390013 L 592.7352449449826 71.69528778035229 L 709.5776893859737 162.40914288484572 L 900.8761861405688 648.0638734221584 L 759.2555977102141 884.9813124083688 L 669.705225906767 904.3041873351601 L 506.0077066979498 886.2641469249231 L 231.65170255871854 547.3187630223376 Z" fill="#4f412c" stroke="rgba(234,216,176,0.45)" stroke-width="3.2"/><path d="M 48 48 L 92.53237742830711 48 L 92.53237742830711 50.52933935166188 L 137.06475485661423 50.52933935166188" fill="none" stroke="#c4a06a" stroke-width="10.866666666666667" stroke-linecap="square" stroke-linejoin="miter" opacity="0.9"/><path d="M 48 48 L 95.2749768732655 48 L 95.2749768732655 134.54739433729998 L 142.549953746531 134.54739433729998" fill="none" stroke="#c4a06a" stroke-width="10.866666666666667" stroke-linecap="square" stroke-linejoin="miter" opacity="0.9"/><path d="M 832.104532839963 620.7304062371769 L 842.0522664199815 620.7304062371769 L 842.0522664199815 620.7304062371769 L 852 620.7304062371769" fill="none" stroke="#c4a06a" stroke-width="6.7" stroke-linecap="square" stroke-linejoin="miter" opacity="0.9"/><path d="M 544.9218316373729 661.1998358637669 L 554.8695652173914 661.1998358637669 L 554.8695652173914 661.1998358637669 L 564.8172987974099 661.1998358637669" fill="none" stroke="#c4a06a" stroke-width="6.7" stroke-linecap="square" stroke-linejoin="miter" opacity="0.9"/><path d="M 518.4255319148936 123.88018054985638 L 546.9671600370027 123.88018054985638 L 546.9671600370027 124.9798933114485 L 575.5087881591119 124.9798933114485" fill="none" stroke="#c4a06a" stroke-width="6.7" stroke-linecap="square" stroke-linejoin="miter" opacity="0.9"/><path d="M 236.91396854764108 130.58842839556831 L 258.4828862164662 130.58842839556831 L 258.4828862164662 130.58842839556831 L 280.0518038852914 130.58842839556831" fill="none" stroke="#c4a06a" stroke-width="6.7" stroke-linecap="square" stroke-linejoin="miter" opacity="0.9"/><path d="M 381.20259019426453 471.49938448912593 L 392.1265032377428 471.49938448912593 L 392.1265032377428 470.1797291752154 L 403.0504162812211 470.1797291752154" fill="none" stroke="#c4a06a" stroke-width="5.866666666666667" stroke-linecap="square" stroke-linejoin="miter" opacity="0.9"/><path d="M 561.9352451433858 781.8383258104227 L 571.8829787234042 781.8383258104227 L 571.8829787234042 781.8383258104227 L 581.8307123034227 781.8383258104227" fill="none" stroke="#c4a06a" stroke-width="6.7" stroke-linecap="square" stroke-linejoin="miter" opacity="0.9"/><path d="M 141.52728954671602 174.57693885925318 L 167.55874190564293 174.57693885925318 L 167.55874190564293 174.57693885925318 L 193.59019426456985 174.57693885925318" fill="none" stroke="#c4a06a" stroke-width="7.533333333333333" stroke-linecap="square" stroke-linejoin="miter" opacity="0.9"/><path d="M 48 48 L 221.6204902867715 48 L 221.6204902867715 137.29667624128024 L 395.240980573543 137.29667624128024" fill="none" stroke="#c4a06a" stroke-width="11.7" stroke-linecap="square" stroke-linejoin="miter" opacity="0.9"/><path d="M 402.9574468085106 520.9864587607715 L 428.0127197039778 520.9864587607715 L 428.0127197039778 520.9864587607715 L 453.06799259944495 520.9864587607715" fill="none" stroke="#c4a06a" stroke-width="6.7" stroke-linecap="square" stroke-linejoin="miter" opacity="0.9"/><path d="M 281.07446808510633 520.9864587607715 L 313.4743293246993 520.9864587607715 L 313.4743293246993 520.9864587607715 L 345.8741905642923 520.9864587607715" fill="none" stroke="#c4a06a" stroke-width="6.7" stroke-linecap="square" stroke-linejoin="miter" opacity="0.9"/><path d="M 48 48 L 95.83279370952822 48 L 95.83279370952822 94.51784981534674 L 143.66558741905644 94.51784981534674" fill="none" stroke="#c4a06a" stroke-width="10.866666666666667" stroke-linecap="square" stroke-linejoin="miter" opacity="0.9"/><path d="M 382.0393154486586 434.3290931473122 L 392.777289546716 434.3290931473122 L 392.777289546716 430.1501846532622 L 403.51526364477337 430.1501846532622" fill="none" stroke="#c4a06a" stroke-width="5.866666666666667" stroke-linecap="square" stroke-linejoin="miter" opacity="0.9"/><path d="M 523.0740055504164 830.3356585966352 L 548.1292784458835 830.3356585966352 L 548.1292784458835 830.3356585966352 L 573.1845513413506 830.3356585966352" fill="none" stroke="#c4a06a" stroke-width="7.533333333333333" stroke-linecap="square" stroke-linejoin="miter" opacity="0.9"/><path d="M 599.2160037002775 618.5309807139927 L 620.7849213691027 618.5309807139927 L 620.7849213691027 619.9606073040624 L 642.3538390379279 619.9606073040624" fill="none" stroke="#c4a06a" stroke-width="7.533333333333333" stroke-linecap="square" stroke-linejoin="miter" opacity="0.9"/><path d="M 192.6604995374653 134.54739433729998 L 214.7872340425532 134.54739433729998 L 214.7872340425532 130.58842839556831 L 236.91396854764108 130.58842839556831" fill="none" stroke="#c4a06a" stroke-width="7.533333333333333" stroke-linecap="square" stroke-linejoin="miter" opacity="0.9"/><path d="M 673.7775208140611 836.7139926138696 L 702.3191489361702 836.7139926138696 L 702.3191489361702 836.7139926138696 L 730.8607770582794 836.7139926138696" fill="none" stroke="#c4a06a" stroke-width="6.7" stroke-linecap="square" stroke-linejoin="miter" opacity="0.9"/><path d="M 415.13644773358004 124.9798933114485 L 440.1917206290472 124.9798933114485 L 440.1917206290472 124.9798933114485 L 465.2469935245144 124.9798933114485" fill="none" stroke="#c4a06a" stroke-width="7.533333333333333" stroke-linecap="square" stroke-linejoin="miter" opacity="0.9"/><path d="M 324.0263644773358 351.5207221994255 L 334.9967622571693 351.5207221994255 L 334.9967622571693 344.5925318013952 L 345.96716003700277 344.5925318013952" fill="none" stroke="#c4a06a" stroke-width="6.7" stroke-linecap="square" stroke-linejoin="miter" opacity="0.9"/><path d="M 380.27289546716 401.2277390233894 L 392.0800185013876 401.2277390233894 L 392.0800185013876 390.12064013130896 L 403.88714153561517 390.12064013130896" fill="none" stroke="#c4a06a" stroke-width="6.7" stroke-linecap="square" stroke-linejoin="miter" opacity="0.9"/><path d="M 187.17530064754857 49.64956914238818 L 209.48797409805735 49.64956914238818 L 209.48797409805735 49.09971276159212 L 231.80064754856616 49.09971276159212" fill="none" stroke="#c4a06a" stroke-width="7.533333333333333" stroke-linecap="square" stroke-linejoin="miter" opacity="0.9"/><path d="M 403.88714153561517 390.12064013130896 L 429.2213228492137 390.12064013130896 L 429.2213228492137 391.99015182601556 L 454.5555041628122 391.99015182601556" fill="none" stroke="#c4a06a" stroke-width="6.7" stroke-linecap="square" stroke-linejoin="miter" opacity="0.9"/><path d="M 503.1785383903793 830.3356585966352 L 513.1262719703979 830.3356585966352 L 513.1262719703979 830.3356585966352 L 523.0740055504164 830.3356585966352" fill="none" stroke="#c4a06a" stroke-width="6.7" stroke-linecap="square" stroke-linejoin="miter" opacity="0.9"/><path d="M 649.6984273820536 852 L 661.7379740980573 852 L 661.7379740980573 836.7139926138696 L 673.7775208140611 836.7139926138696" fill="none" stroke="#c4a06a" stroke-width="7.533333333333333" stroke-linecap="square" stroke-linejoin="miter" opacity="0.9"/><path d="M 620.5989824236818 836.2741075092326 L 635.1487049028677 836.2741075092326 L 635.1487049028677 852 L 649.6984273820536 852" fill="none" stroke="#c4a06a" stroke-width="7.533333333333333" stroke-linecap="square" stroke-linejoin="miter" opacity="0.9"/><path d="M 395.240980573543 137.29667624128024 L 405.18871415356153 137.29667624128024 L 405.18871415356153 124.9798933114485 L 415.13644773358004 124.9798933114485" fill="none" stroke="#c4a06a" stroke-width="8.366666666666667" stroke-linecap="square" stroke-linejoin="miter" opacity="0.9"/><path d="M 383.24791859389455 579.6011489536315 L 393.195652173913 579.6011489536315 L 393.195652173913 572.7829298317604 L 403.1433857539315 572.7829298317604" fill="none" stroke="#c4a06a" stroke-width="5.866666666666667" stroke-linecap="square" stroke-linejoin="miter" opacity="0.9"/><path d="M 345.8741905642923 520.9864587607715 L 374.41581868640145 520.9864587607715 L 374.41581868640145 520.9864587607715 L 402.9574468085106 520.9864587607715" fill="none" stroke="#c4a06a" stroke-width="7.533333333333333" stroke-linecap="square" stroke-linejoin="miter" opacity="0.9"/><path d="M 48 48 L 118.42437557816837 48 L 118.42437557816837 214.93639720968403 L 188.84875115633673 214.93639720968403" fill="none" stroke="#c4a06a" stroke-width="10.033333333333335" stroke-linecap="square" stroke-linejoin="miter" opacity="0.9"/><path d="M 231.80064754856616 49.09971276159212 L 254.3922294172063 49.09971276159212 L 254.3922294172063 51.958965941731634 L 276.9838112858464 51.958965941731634" fill="none" stroke="#c4a06a" stroke-width="6.7" stroke-linecap="square" stroke-linejoin="miter" opacity="0.9"/><path d="M 395.240980573543 137.29667624128024 L 480.07562442183166 137.29667624128024 L 480.07562442183166 210.75748871563397 L 564.9102682701202 210.75748871563397" fill="none" stroke="#c4a06a" stroke-width="7.533333333333333" stroke-linecap="square" stroke-linejoin="miter" opacity="0.9"/><path d="M 490.7206290471786 725.3130898645876 L 501.55157261794636 725.3130898645876 L 501.55157261794636 718.4948707427164 L 512.3825161887141 718.4948707427164" fill="none" stroke="#c4a06a" stroke-width="5.866666666666667" stroke-linecap="square" stroke-linejoin="miter" opacity="0.9"/><path d="M 738.8561517113783 620.7304062371769 L 760.4250693802035 620.7304062371769 L 760.4250693802035 620.7304062371769 L 781.9939870490286 620.7304062371769" fill="none" stroke="#c4a06a" stroke-width="7.533333333333333" stroke-linecap="square" stroke-linejoin="miter" opacity="0.9"/><path d="M 614.9278445883442 661.1998358637669 L 624.8755781683626 661.1998358637669 L 624.8755781683626 661.1998358637669 L 634.8233117483811 661.1998358637669" fill="none" stroke="#c4a06a" stroke-width="6.7" stroke-linecap="square" stroke-linejoin="miter" opacity="0.9"/><path d="M 642.3538390379279 619.9606073040624 L 667.409111933395 619.9606073040624 L 667.409111933395 619.5207221994256 L 692.4643848288621 619.5207221994256" fill="none" stroke="#c4a06a" stroke-width="7.533333333333333" stroke-linecap="square" stroke-linejoin="miter" opacity="0.9"/><path d="M 137.06475485661423 50.52933935166188 L 162.1200277520814 50.52933935166188 L 162.1200277520814 49.64956914238818 L 187.17530064754857 49.64956914238818" fill="none" stroke="#c4a06a" stroke-width="7.533333333333333" stroke-linecap="square" stroke-linejoin="miter" opacity="0.9"/><path d="M 781.9939870490286 620.7304062371769 L 807.0492599444958 620.7304062371769 L 807.0492599444958 620.7304062371769 L 832.104532839963 620.7304062371769" fill="none" stroke="#c4a06a" stroke-width="7.533333333333333" stroke-linecap="square" stroke-linejoin="miter" opacity="0.9"/><path d="M 549.1054579093432 618.5309807139927 L 574.1607308048103 618.5309807139927 L 574.1607308048103 618.5309807139927 L 599.2160037002775 618.5309807139927" fill="none" stroke="#c4a06a" stroke-width="7.533333333333333" stroke-linecap="square" stroke-linejoin="miter" opacity="0.9"/><path d="M 542.0397779833488 781.8383258104227 L 551.9875115633673 781.8383258104227 L 551.9875115633673 781.8383258104227 L 561.9352451433858 781.8383258104227" fill="none" stroke="#c4a06a" stroke-width="6.7" stroke-linecap="square" stroke-linejoin="miter" opacity="0.9"/><path d="M 692.4643848288621 619.5207221994256 L 715.6602682701202 619.5207221994256 L 715.6602682701202 620.7304062371769 L 738.8561517113783 620.7304062371769" fill="none" stroke="#c4a06a" stroke-width="7.533333333333333" stroke-linecap="square" stroke-linejoin="miter" opacity="0.9"/><path d="M 48 48 L 94.76364477335801 48 L 94.76364477335801 174.57693885925318 L 141.52728954671602 174.57693885925318" fill="none" stroke="#c4a06a" stroke-width="10.866666666666667" stroke-linecap="square" stroke-linejoin="miter" opacity="0.9"/><path d="M 564.8172987974099 661.1998358637669 L 589.872571692877 661.1998358637669 L 589.872571692877 661.1998358637669 L 614.9278445883442 661.1998358637669" fill="none" stroke="#c4a06a" stroke-width="7.533333333333333" stroke-linecap="square" stroke-linejoin="miter" opacity="0.9"/><path d="M 143.66558741905644 94.51784981534674 L 165.2345050878816 94.51784981534674 L 165.2345050878816 94.51784981534674 L 186.80342275670677 94.51784981534674" fill="none" stroke="#c4a06a" stroke-width="7.533333333333333" stroke-linecap="square" stroke-linejoin="miter" opacity="0.9"/><path d="M 142.549953746531 134.54739433729998 L 167.60522664199817 134.54739433729998 L 167.60522664199817 134.54739433729998 L 192.6604995374653 134.54739433729998" fill="none" stroke="#c4a06a" stroke-width="7.533333333333333" stroke-linecap="square" stroke-linejoin="miter" opacity="0.9"/><path d="M 681.2150786308973 326.6672137874436 L 688.8385753931545 326.6672137874436 L 688.8385753931545 317.3196553139106 L 696.4620721554116 317.3196553139106" fill="none" stroke="#c4a06a" stroke-width="5.866666666666667" stroke-linecap="square" stroke-linejoin="miter" opacity="0.9"/><path d="M 186.80342275670677 94.51784981534674 L 212.5559666975023 94.51784981534674 L 212.5559666975023 104.52523594583505 L 238.30851063829786 104.52523594583505" fill="none" stroke="#c4a06a" stroke-width="6.7" stroke-linecap="square" stroke-linejoin="miter" opacity="0.9"/><path d="M 573.1845513413506 830.3356585966352 L 596.8917668825162 830.3356585966352 L 596.8917668825162 836.2741075092326 L 620.5989824236818 836.2741075092326" fill="none" stroke="#c4a06a" stroke-width="7.533333333333333" stroke-linecap="square" stroke-linejoin="miter" opacity="0.9"/><path d="M 193.59019426456985 174.57693885925318 L 215.159111933395 174.57693885925318 L 215.159111933395 172.70742716454657 L 236.72802960222015 172.70742716454657" fill="none" stroke="#c4a06a" stroke-width="6.7" stroke-linecap="square" stroke-linejoin="miter" opacity="0.9"/><path d="M 533.858464384829 618.5309807139927 L 541.481961147086 618.5309807139927 L 541.481961147086 618.5309807139927 L 549.1054579093432 618.5309807139927" fill="none" stroke="#c4a06a" stroke-width="6.7" stroke-linecap="square" stroke-linejoin="miter" opacity="0.9"/><path d="M 465.2469935245144 124.9798933114485 L 491.836262719704 124.9798933114485 L 491.836262719704 123.88018054985638 L 518.4255319148936 123.88018054985638" fill="none" stroke="#c4a06a" stroke-width="7.533333333333333" stroke-linecap="square" stroke-linejoin="miter" opacity="0.9"/><path d="M 345.96716003700277 344.5925318013952 L 374.8806660499538 344.5925318013952 L 374.8806660499538 348.0016413623307 L 403.79417206290475 348.0016413623307" fill="none" stroke="#c4a06a" stroke-width="6.7" stroke-linecap="square" stroke-linejoin="miter" opacity="0.9"/><rect x="-14.100000000000001" y="-14.100000000000001" width="124.2" height="124.2" fill="#1e1a12" stroke="rgba(234,216,176,0.35)" stroke-width="2"/><polygon points="48,2 87.83716857408417,25 87.83716857408419,71 48,94 8.162831425915833,71.00000000000001 8.162831425915826,24.999999999999996" fill="#ead8b0"/><polygon points="48,25.92 67.1218409155604,36.96 67.1218409155604,59.03999999999999 48,70.08 28.878159084439602,59.040000000000006 28.8781590844396,36.96" fill="#9e9277"/><rect x="361.490980573543" y="103.54667624128024" width="67.5" height="67.5" fill="#1e1a12" stroke="rgba(234,216,176,0.35)" stroke-width="2"/><polygon points="395.240980573543,112.29667624128024 414.7867676352438,121.7094311948119 419.61417837808864,142.8596995901881 406.08807405148195,159.82089793884072 384.3938870956041,159.82089793884072 370.8677827689974,142.85969959018811 375.69519351184226,121.7094311948119" fill="#aca391"/><polygon points="395.240980573543,125.29667624128024 404.6229583631594,129.81479861897543 406.9401155197249,139.96692744875602 400.4475854429537,148.10830265610926 390.03437570413234,148.10830265610926 383.54184562736117,139.96692744875602 385.85900278392666,129.81479861897543" fill="#767062"/><rect x="803.304532839963" y="591.930406237177" width="57.6" height="57.6" fill="#1e1a12" stroke="rgba(234,216,176,0.35)" stroke-width="2"/><polygon points="832.104532839963,599.3970729038435 847.189477505276,605.6454615718638 853.4378661732964,620.7304062371769 847.189477505276,635.81535090249 832.104532839963,642.0637395705103 817.0195881746499,635.81535090249 810.7711995066296,620.7304062371769 817.0195881746499,605.6454615718638" fill="#a1b065"/><polygon points="832.104532839963,610.4904062371769 839.3453062793133,613.4896327978266 842.344532839963,620.7304062371769 839.3453062793133,627.9711796765272 832.104532839963,630.9704062371769 824.8637594006127,627.9711796765272 821.864532839963,620.7304062371769 824.8637594006127,613.4896327978266" fill="#6f7846"/><rect x="164.79019426456983" y="145.77693885925316" width="57.6" height="57.6" fill="#1e1a12" stroke="rgba(234,216,176,0.35)" stroke-width="2"/><polygon points="193.59019426456985,153.24360552591983 212.06540287863788,163.91027219258652 212.06540287863788,185.24360552591983 193.59019426456985,195.91027219258652 175.11498565050184,185.24360552591986 175.1149856505018,163.91027219258652" fill="#d5c16e"/><polygon points="193.59019426456985,164.33693885925317 202.45829439932248,169.45693885925317 202.45829439932248,179.69693885925318 193.59019426456985,184.81693885925318 184.7220941298172,179.69693885925318 184.7220941298172,169.45693885925317" fill="#91834c"/><rect x="158.37530064754856" y="20.84956914238818" width="57.6" height="57.6" fill="#1e1a12" stroke="rgba(234,216,176,0.35)" stroke-width="2"/><polygon points="187.17530064754857,28.31623580905485 203.85437227353322,36.34845336940187 207.97376277409413,54.396682400122884 196.43148708205646,68.87023832430646 177.91911421304067,68.87023832430646 166.376838521003,54.39668240012289 170.49622902156392,36.34845336940187" fill="#70a58d"/><polygon points="187.17530064754857,39.40956914238818 195.18125502802118,43.26503357135475 197.15856246829043,51.92818350610084 191.61827013611236,58.875490349708954 182.73233115898478,58.875490349708954 177.1920388268067,51.928183506100844 179.16934626707595,43.26503357135475" fill="#4f7160"/><rect x="208.11396854764106" y="101.78842839556832" width="57.6" height="57.6" fill="#1e1a12" stroke="rgba(234,216,176,0.35)" stroke-width="2"/><polygon points="236.91396854764108,109.25509506223499 251.99891321295408,115.5034837302553 258.2473018809744,130.58842839556831 251.99891321295408,145.67337306088132 236.91396854764108,151.92176172890166 221.82902388232807,145.67337306088132 215.58063521430773,130.58842839556831 221.82902388232804,115.5034837302553" fill="#e4b45d"/><polygon points="236.91396854764108,120.34842839556832 244.15474198699133,123.34765495621807 247.15396854764109,130.58842839556831 244.15474198699133,137.82920183491856 236.91396854764108,140.82842839556832 229.67319510829083,137.82920183491856 226.67396854764107,130.58842839556831 229.67319510829083,123.34765495621807" fill="#9b7b41"/><rect x="203.00064754856615" y="20.299712761592122" width="57.6" height="57.6" fill="#1e1a12" stroke="rgba(234,216,176,0.35)" stroke-width="2"/><polygon points="231.80064754856616,27.76637942825879 250.27585616263417,38.43304609492546 250.27585616263417,59.76637942825879 231.80064754856616,70.43304609492546 213.32543893449815,59.766379428258794 213.32543893449815,38.43304609492546" fill="#7aa578"/><polygon points="231.80064754856616,38.85971276159212 240.6687476833188,43.979712761592126 240.6687476833188,54.21971276159212 231.80064754856616,59.339712761592125 222.93254741381352,54.21971276159213 222.93254741381352,43.979712761592126" fill="#567152"/><rect x="570.4160037002775" y="589.7309807139927" width="57.6" height="57.6" fill="#1e1a12" stroke="rgba(234,216,176,0.35)" stroke-width="2"/><polygon points="599.2160037002775,597.1976473806593 615.8950753262621,605.2298649410063 620.0144658268231,623.2780939717273 608.4721901347854,637.751649895911 589.9598172657696,637.751649895911 578.4175415737319,623.2780939717273 582.5369320742928,605.2298649410063" fill="#dc9a63"/><polygon points="599.2160037002775,608.2909807139927 607.2219580807501,612.1464451429592 609.1992655210194,620.8095950777054 603.6589731888413,627.7569019213134 594.7730342117137,627.7569019213134 589.2327418795356,620.8095950777054 591.2100493198049,612.1464451429592" fill="#956a45"/><rect x="710.0561517113783" y="591.930406237177" width="57.6" height="57.6" fill="#1e1a12" stroke="rgba(234,216,176,0.35)" stroke-width="2"/><polygon points="738.8561517113783,599.3970729038435 753.9410963766913,605.6454615718638 760.1894850447117,620.7304062371769 753.9410963766913,635.81535090249 738.8561517113783,642.0637395705103 723.7712070460652,635.81535090249 717.5228183780449,620.7304062371769 723.7712070460652,605.6454615718638" fill="#aca391"/><polygon points="738.8561517113783,610.4904062371769 746.0969251507286,613.4896327978266 749.0961517113783,620.7304062371769 746.0969251507286,627.9711796765272 738.8561517113783,630.9704062371769 731.615378272028,627.9711796765272 728.6161517113783,620.7304062371769 731.615378272028,613.4896327978266" fill="#767062"/><rect x="644.9775208140611" y="807.9139926138696" width="57.6" height="57.6" fill="#1e1a12" stroke="rgba(234,216,176,0.35)" stroke-width="2"/><polygon points="673.7775208140611,815.3806592805362 692.2527294281291,826.0473259472029 692.2527294281291,847.3806592805362 673.7775208140611,858.0473259472029 655.302312199993,847.3806592805362 655.302312199993,826.0473259472029" fill="#a1b065"/><polygon points="673.7775208140611,826.4739926138695 682.6456209488138,831.5939926138695 682.6456209488138,841.8339926138696 673.7775208140611,846.9539926138696 664.9094206793084,841.8339926138696 664.9094206793084,831.5939926138695" fill="#6f7846"/><rect x="489.62553191489354" y="95.08018054985638" width="57.6" height="57.6" fill="#1e1a12" stroke="rgba(234,216,176,0.35)" stroke-width="2"/><polygon points="518.4255319148936,102.54684721652305 535.1046035408782,110.57906477687007 539.2239940414391,128.6272938075911 527.6817183494014,143.10084973177464 509.16934548038563,143.10084973177464 497.62706978834797,128.6272938075911 501.7464602889089,110.57906477687007" fill="#d5c16e"/><polygon points="518.4255319148936,113.64018054985638 526.4314862953662,117.49564497882295 528.4087937356354,126.15879491356904 522.8685014034573,133.10610175717716 513.9825624263298,133.10610175717716 508.4422700941517,126.15879491356904 510.4195775344209,117.49564497882295" fill="#91834c"/><rect x="317.16716003700276" y="315.79253180139517" width="57.6" height="57.6" fill="#1e1a12" stroke="rgba(234,216,176,0.35)" stroke-width="2"/><polygon points="345.96716003700277,323.25919846806187 361.0521047023158,329.5075871360822 367.3004933703361,344.5925318013952 361.0521047023158,359.6774764667082 345.96716003700277,365.9258651347285 330.88221537168977,359.6774764667082 324.63382670366946,344.5925318013952 330.88221537168977,329.5075871360822" fill="#70a58d"/><polygon points="345.96716003700277,334.3525318013952 353.207933476353,337.35175836204496 356.2071600370028,344.5925318013952 353.207933476353,351.8333052407454 345.96716003700277,354.8325318013952 338.72638659765255,351.8333052407454 335.72716003700276,344.5925318013952 338.72638659765255,337.35175836204496" fill="#4f7160"/><rect x="317.0741905642923" y="492.1864587607715" width="57.6" height="57.6" fill="#1e1a12" stroke="rgba(234,216,176,0.35)" stroke-width="2"/><polygon points="345.8741905642923,499.65312542743817 364.34939917836033,510.3197920941048 364.34939917836033,531.6531254274381 345.8741905642923,542.3197920941049 327.39898195022425,531.6531254274381 327.39898195022425,510.3197920941048" fill="#e4b45d"/><polygon points="345.8741905642923,510.7464587607715 354.74229069904493,515.8664587607715 354.74229069904493,526.1064587607715 345.8741905642923,531.2264587607715 337.00609042953965,526.1064587607715 337.00609042953965,515.8664587607715" fill="#9b7b41"/><rect x="663.6643848288621" y="590.7207221994256" width="57.6" height="57.6" fill="#1e1a12" stroke="rgba(234,216,176,0.35)" stroke-width="2"/><polygon points="692.4643848288621,598.1873888660922 709.1434564548467,606.2196064264392 713.2628469554077,624.2678354571602 701.72057126337,638.7413913813439 683.2081983943542,638.7413913813439 671.6659227023165,624.2678354571602 675.7853132028774,606.2196064264392" fill="#7aa578"/><polygon points="692.4643848288621,609.2807221994256 700.4703392093347,613.1361866283921 702.4476466496039,621.7993365631382 696.9073543174259,628.7466434067463 688.0214153402983,628.7466434067463 682.4811230081202,621.7993365631382 684.4584304483894,613.1361866283921" fill="#567152"/><rect x="544.3845513413506" y="801.5356585966352" width="57.6" height="57.6" fill="#1e1a12" stroke="rgba(234,216,176,0.35)" stroke-width="2"/><polygon points="573.1845513413506,809.0023252633018 588.2694960066636,815.2507139313221 594.517884674684,830.3356585966352 588.2694960066636,845.4206032619483 573.1845513413506,851.6689919299686 558.0996066760375,845.4206032619483 551.8512180080172,830.3356585966352 558.0996066760375,815.2507139313221" fill="#dc9a63"/><polygon points="573.1845513413506,820.0956585966352 580.4253247807009,823.0948851572849 583.4245513413506,830.3356585966352 580.4253247807009,837.5764320359855 573.1845513413506,840.5756585966352 565.9437779020003,837.5764320359855 562.9445513413506,830.3356585966352 565.9437779020003,823.0948851572849" fill="#956a45"/><rect x="114.86558741905644" y="65.71784981534674" width="57.6" height="57.6" fill="#1e1a12" stroke="rgba(234,216,176,0.35)" stroke-width="2"/><polygon points="143.66558741905644,73.18451648201341 162.14079603312445,83.85118314868006 162.14079603312445,105.1845164820134 143.66558741905644,115.85118314868006 125.19037880498841,105.18451648201341 125.19037880498841,83.85118314868006" fill="#aca391"/><polygon points="143.66558741905644,84.27784981534674 152.53368755380907,89.39784981534673 152.53368755380907,99.63784981534673 143.66558741905644,104.75784981534673 134.7974872843038,99.63784981534674 134.7974872843038,89.39784981534673" fill="#767062"/><rect x="163.8604995374653" y="105.74739433729998" width="57.6" height="57.6" fill="#1e1a12" stroke="rgba(234,216,176,0.35)" stroke-width="2"/><polygon points="192.6604995374653,113.21406100396665 209.33957116344993,121.24627856431366 213.45896166401087,139.29450759503467 201.9166859719732,153.76806351921826 183.40431310295742,153.76806351921826 171.86203741091975,139.29450759503467 175.98142791148067,121.24627856431367" fill="#a1b065"/><polygon points="192.6604995374653,124.30739433729998 200.66645391793793,128.16285876626654 202.6437613582072,136.82600870101263 197.1034690260291,143.77331554462074 188.21753004890152,143.77331554462074 182.67723771672343,136.82600870101263 184.6545451569927,128.16285876626654" fill="#6f7846"/><rect x="533.1352451433859" y="753.0383258104227" width="57.6" height="57.6" fill="#1e1a12" stroke="rgba(234,216,176,0.35)" stroke-width="2"/><polygon points="561.9352451433858,760.5049924770893 577.0201898086989,766.7533811451096 583.2685784767192,781.8383258104227 577.0201898086989,796.9232704757358 561.9352451433858,803.1716591437561 546.8503004780728,796.9232704757358 540.6019118100525,781.8383258104227 546.8503004780728,766.7533811451096" fill="#d5c16e"/><polygon points="561.9352451433858,771.5983258104227 569.1760185827361,774.5975523710724 572.1752451433858,781.8383258104227 569.1760185827361,789.079099249773 561.9352451433858,792.0783258104227 554.6944717040355,789.079099249773 551.6952451433858,781.8383258104227 554.6944717040355,774.5975523710724" fill="#91834c"/><rect x="586.1278445883443" y="632.399835863767" width="57.6" height="57.6" fill="#1e1a12" stroke="rgba(234,216,176,0.35)" stroke-width="2"/><polygon points="614.9278445883442,639.8665025304335 633.4030532024123,650.5331691971003 633.4030532024123,671.8665025304335 614.9278445883442,682.5331691971003 596.4526359742762,671.8665025304335 596.4526359742762,650.5331691971003" fill="#70a58d"/><polygon points="614.9278445883442,650.9598358637669 623.7959447230969,656.0798358637669 623.7959447230969,666.3198358637669 614.9278445883442,671.4398358637669 606.0597444535915,666.3198358637669 606.0597444535915,656.0798358637669" fill="#4f7160"/><rect x="620.8984273820537" y="823.2" width="57.6" height="57.6" fill="#1e1a12" stroke="rgba(234,216,176,0.35)" stroke-width="2"/><polygon points="649.6984273820536,830.6666666666666 666.3774990080383,838.6988842270137 670.4968895085992,856.7471132577347 658.9546138165615,871.2206691819183 640.4422409475458,871.2206691819183 628.899965255508,856.7471132577347 633.019355756069,838.6988842270137" fill="#e4b45d"/><polygon points="649.6984273820536,841.76 657.7043817625263,845.6154644289666 659.6816892027955,854.2786143637127 654.1413968706174,861.2259212073208 645.2554578934898,861.2259212073208 639.7151655613118,854.2786143637127 641.692473001581,845.6154644289666" fill="#9b7b41"/><rect x="158.00342275670675" y="65.71784981534674" width="57.6" height="57.6" fill="#1e1a12" stroke="rgba(234,216,176,0.35)" stroke-width="2"/><polygon points="186.80342275670677,73.18451648201341 201.88836742201977,79.43290515003372 208.1367560900401,94.51784981534674 201.88836742201977,109.60279448065975 186.80342275670677,115.85118314868006 171.71847809139376,109.60279448065975 165.47008942337342,94.51784981534674 171.71847809139376,79.43290515003372" fill="#7aa578"/><polygon points="186.80342275670677,84.27784981534674 194.04419619605702,87.27707637599649 197.04342275670678,94.51784981534674 194.04419619605702,101.75862325469699 186.80342275670677,104.75784981534673 179.56264931735652,101.75862325469699 176.56342275670676,94.51784981534674 179.56264931735652,87.27707637599649" fill="#567152"/><rect x="494.27400555041635" y="801.5356585966352" width="57.6" height="57.6" fill="#1e1a12" stroke="rgba(234,216,176,0.35)" stroke-width="2"/><polygon points="523.0740055504164,809.0023252633018 541.5492141644844,819.6689919299686 541.5492141644844,841.0023252633018 523.0740055504164,851.6689919299686 504.5987969363483,841.0023252633018 504.5987969363483,819.6689919299686" fill="#dc9a63"/><polygon points="523.0740055504164,820.0956585966352 531.942105685169,825.2156585966352 531.942105685169,835.4556585966352 523.0740055504164,840.5756585966352 514.2059054156637,835.4556585966352 514.2059054156637,825.2156585966352" fill="#956a45"/><rect x="108.26475485661423" y="21.72933935166188" width="57.6" height="57.6" fill="#1e1a12" stroke="rgba(234,216,176,0.35)" stroke-width="2"/><polygon points="137.06475485661423,29.19600601832855 153.74382648259888,37.22822357867557 157.8632169831598,55.276452609396586 146.32094129112212,69.75000853358016 127.80856842210632,69.75000853358016 116.26629273006866,55.27645260939659 120.3856832306296,37.22822357867557" fill="#aca391"/><polygon points="137.06475485661423,40.28933935166188 145.07070923708685,44.14480378062845 147.0480166773561,52.80795371537454 141.50772434517802,59.755260558982656 132.62178536805044,59.755260558982656 127.08149303587236,52.807953715374545 129.0588004761416,44.14480378062845" fill="#767062"/><rect x="753.1939870490287" y="591.930406237177" width="57.6" height="57.6" fill="#1e1a12" stroke="rgba(234,216,176,0.35)" stroke-width="2"/><polygon points="781.9939870490286,599.3970729038435 797.0789317143417,605.6454615718638 803.327320382362,620.7304062371769 797.0789317143417,635.81535090249 781.9939870490286,642.0637395705103 766.9090423837156,635.81535090249 760.6606537156953,620.7304062371769 766.9090423837156,605.6454615718638" fill="#a1b065"/><polygon points="781.9939870490286,610.4904062371769 789.2347604883789,613.4896327978266 792.2339870490287,620.7304062371769 789.2347604883789,627.9711796765272 781.9939870490286,630.9704062371769 774.7532136096784,627.9711796765272 771.7539870490286,620.7304062371769 774.7532136096784,613.4896327978266" fill="#6f7846"/><rect x="375.08714153561516" y="361.32064013130895" width="57.6" height="57.6" fill="#1e1a12" stroke="rgba(234,216,176,0.35)" stroke-width="2"/><polygon points="403.88714153561517,368.78730679797565 422.3623501496832,379.4539734646423 422.3623501496832,400.78730679797565 403.88714153561517,411.4539734646423 385.41193292154713,400.78730679797565 385.41193292154713,379.4539734646423" fill="#d5c16e"/><polygon points="403.88714153561517,379.88064013130895 412.7552416703678,385.00064013130896 412.7552416703678,395.24064013130896 403.88714153561517,400.36064013130897 395.01904140086253,395.24064013130896 395.01904140086253,385.00064013130896" fill="#91834c"/><rect x="374.1574468085106" y="492.1864587607715" width="57.6" height="57.6" fill="#1e1a12" stroke="rgba(234,216,176,0.35)" stroke-width="2"/><polygon points="402.9574468085106,499.65312542743817 419.63651843449526,507.6853429877852 423.7559089350562,525.7335720185062 412.21363324301853,540.2071279426898 393.7012603740027,540.2071279426898 382.158984681965,525.7335720185062 386.27837518252596,507.6853429877852" fill="#70a58d"/><polygon points="402.9574468085106,510.7464587607715 410.96340118898325,514.601923189738 412.94070862925247,523.2650731244842 407.4004162970744,530.2123799680923 398.5144773199468,530.2123799680923 392.97418498776875,523.2650731244842 394.95149242803797,514.601923189738" fill="#4f7160"/><rect x="113.749953746531" y="105.74739433729998" width="57.6" height="57.6" fill="#1e1a12" stroke="rgba(234,216,176,0.35)" stroke-width="2"/><polygon points="142.549953746531,113.21406100396665 157.634898411844,119.46244967198696 163.88328707986435,134.54739433729998 157.634898411844,149.63233900261298 142.549953746531,155.88072767063332 127.46500908121799,149.63233900261298 121.21662041319767,134.54739433729998 127.46500908121799,119.46244967198696" fill="#e4b45d"/><polygon points="142.549953746531,124.30739433729998 149.79072718588125,127.30662089794973 152.789953746531,134.54739433729998 149.79072718588125,141.78816777665023 142.549953746531,144.7873943373 135.30918030718075,141.78816777665023 132.309953746531,134.54739433729998 135.30918030718075,127.30662089794973" fill="#9b7b41"/><rect x="613.5538390379279" y="591.1606073040624" width="57.6" height="57.6" fill="#1e1a12" stroke="rgba(234,216,176,0.35)" stroke-width="2"/><polygon points="642.3538390379279,598.627273970729 660.8290476519959,609.2939406373957 660.8290476519959,630.627273970729 642.3538390379279,641.2939406373957 623.8786304238598,630.627273970729 623.8786304238598,609.2939406373957" fill="#7aa578"/><polygon points="642.3538390379279,609.7206073040624 651.2219391726805,614.8406073040624 651.2219391726805,625.0806073040624 642.3538390379279,630.2006073040624 633.4857389031752,625.0806073040624 633.4857389031752,614.8406073040624" fill="#567152"/><rect x="536.0172987974099" y="632.399835863767" width="57.6" height="57.6" fill="#1e1a12" stroke="rgba(234,216,176,0.35)" stroke-width="2"/><polygon points="564.8172987974099,639.8665025304335 581.4963704233945,647.8987200907806 585.6157609239555,665.9469491215016 574.0734852319177,680.4205050456852 555.561112362902,680.4205050456852 544.0188366708643,665.9469491215016 548.1382271714252,647.8987200907806" fill="#dc9a63"/><polygon points="564.8172987974099,650.9598358637669 572.8232531778825,654.8153002927335 574.8005606181517,663.4784502274796 569.2602682859737,670.4257570710877 560.3743293088461,670.4257570710877 554.834036976668,663.4784502274796 556.8113444169372,654.8153002927335" fill="#956a45"/><rect x="520.3054579093432" y="589.7309807139927" width="57.6" height="57.6" fill="#1e1a12" stroke="rgba(234,216,176,0.35)" stroke-width="2"/><polygon points="549.1054579093432,597.1976473806593 564.1904025746562,603.4460360486796 570.4387912426765,618.5309807139927 564.1904025746562,633.6159253793057 549.1054579093432,639.864314047326 534.0205132440301,633.6159253793057 527.7721245760098,618.5309807139927 534.0205132440301,603.4460360486796" fill="#aca391"/><polygon points="549.1054579093432,608.2909807139927 556.3462313486934,611.2902072746424 559.3454579093432,618.5309807139927 556.3462313486934,625.771754153343 549.1054579093432,628.7709807139927 541.8646844699929,625.771754153343 538.8654579093431,618.5309807139927 541.8646844699929,611.2902072746424" fill="#767062"/><rect x="386.33644773358003" y="96.17989331144851" width="57.6" height="57.6" fill="#1e1a12" stroke="rgba(234,216,176,0.35)" stroke-width="2"/><polygon points="415.13644773358004,103.64655997811518 433.6116563476481,114.31322664478184 433.6116563476481,135.64655997811516 415.13644773358004,146.31322664478185 396.661239119512,135.6465599781152 396.661239119512,114.31322664478184" fill="#a1b065"/><polygon points="415.13644773358004,114.73989331144851 424.0045478683327,119.8598933114485 424.0045478683327,130.0998933114485 415.13644773358004,135.21989331144852 406.2683475988274,130.0998933114485 406.2683475988274,119.8598933114485" fill="#6f7846"/><rect x="112.72728954671602" y="145.77693885925316" width="57.6" height="57.6" fill="#1e1a12" stroke="rgba(234,216,176,0.35)" stroke-width="2"/><polygon points="141.52728954671602,153.24360552591983 158.20636117270067,161.27582308626685 162.32575167326158,179.32405211698787 150.78347598122392,193.79760804117146 132.27110311220812,193.79760804117146 120.72882742017045,179.32405211698787 124.84821792073139,161.27582308626685" fill="#d5c16e"/><polygon points="141.52728954671602,164.33693885925317 149.53324392718864,168.19240328821974 151.51055136745788,176.85555322296582 145.9702590352798,183.80286006657394 137.08432005815223,183.80286006657394 131.54402772597416,176.85555322296582 133.5213351662434,168.19240328821974" fill="#91834c"/><rect x="436.44699352451437" y="96.17989331144851" width="57.6" height="57.6" fill="#1e1a12" stroke="rgba(234,216,176,0.35)" stroke-width="2"/><polygon points="465.2469935245144,103.64655997811518 480.3319381898274,109.89494864613549 486.5803268578477,124.9798933114485 480.3319381898274,140.0648379767615 465.2469935245144,146.31322664478185 450.1620488592014,140.0648379767615 443.91366019118107,124.9798933114485 450.1620488592014,109.89494864613549" fill="#70a58d"/><polygon points="465.2469935245144,114.73989331144851 472.4877669638646,117.73911987209826 475.4869935245144,124.9798933114485 472.4877669638646,132.22066675079876 465.2469935245144,135.21989331144852 458.00622008516416,132.22066675079876 455.00699352451437,124.9798933114485 458.00622008516416,117.73911987209826" fill="#4f7160"/><rect x="591.7989824236819" y="807.4741075092327" width="57.6" height="57.6" fill="#1e1a12" stroke="rgba(234,216,176,0.35)" stroke-width="2"/><polygon points="620.5989824236818,814.9407741758993 639.0741910377499,825.607440842566 639.0741910377499,846.9407741758993 620.5989824236818,857.607440842566 602.1237738096138,846.9407741758993 602.1237738096138,825.607440842566" fill="#e4b45d"/><polygon points="620.5989824236818,826.0341075092326 629.4670825584345,831.1541075092326 629.4670825584345,841.3941075092326 620.5989824236818,846.5141075092326 611.7308822889291,841.3941075092326 611.7308822889291,831.1541075092326" fill="#9b7b41"/><rect x="257.2244680851063" y="497.13645876077146" width="47.7" height="47.7" fill="#1e1a12" stroke="rgba(234,216,176,0.35)" stroke-width="2"/><polygon points="281.07446808510633,503.3197920941048 294.88682427537486,509.9714722612672 298.2981945336519,524.917661927333 288.7397474761832,536.9035754270476 273.40918869402947,536.9035754270476 263.85074163656077,524.917661927333 267.2621118948378,509.9714722612672" fill="#7aa578"/><polygon points="281.07446808510633,512.5064587607715 287.70439905643525,515.6992652410095 289.3418567804082,522.8734362807211 284.75380219282323,528.626674760584 277.39513397738943,528.626674760584 272.80707938980447,522.8734362807211 274.4445371137774,515.6992652410095" fill="#567152"/><rect x="510.0084643848289" y="594.6809807139927" width="47.7" height="47.7" fill="#1e1a12" stroke="rgba(234,216,176,0.35)" stroke-width="2"/><polygon points="533.858464384829,600.864314047326 546.3506841857912,606.0387609130304 551.5251310514956,618.5309807139927 546.3506841857912,631.023200514955 533.858464384829,636.1976473806593 521.3662445838667,631.023200514955 516.1917977181623,618.5309807139927 521.3662445838667,606.0387609130304" fill="#dc9a63"/><polygon points="533.858464384829,610.0509807139927 539.8547298892909,612.5347152095308 542.338464384829,618.5309807139927 539.8547298892909,624.5272462184546 533.858464384829,627.0109807139927 527.862198880367,624.5272462184546 525.3784643848289,618.5309807139927 527.862198880367,612.5347152095308" fill="#956a45"/><rect x="657.3650786308973" y="302.81721378744356" width="47.7" height="47.7" fill="#1e1a12" stroke="rgba(234,216,176,0.35)" stroke-width="2"/><polygon points="681.2150786308973,309.0005471207769 696.5148607644225,317.8338804541103 696.5148607644225,335.5005471207769 681.2150786308973,344.3338804541103 665.9152964973722,335.5005471207769 665.9152964973722,317.8338804541103" fill="#aca391"/><polygon points="681.2150786308973,318.18721378744357 688.5589740549893,322.4272137874436 688.5589740549893,330.9072137874436 681.2150786308973,335.1472137874436 673.8711832068053,330.9072137874436 673.8711832068053,322.4272137874436" fill="#767062"/><rect x="430.7055041628122" y="368.14015182601554" width="47.7" height="47.7" fill="#1e1a12" stroke="rgba(234,216,176,0.35)" stroke-width="2"/><polygon points="454.5555041628122,374.3234851593489 468.36786035308074,380.9751653265113 471.7792306113578,395.9213549925771 462.2207835538891,407.9072684922916 446.89022477173535,407.9072684922916 437.33177771426665,395.9213549925771 440.7431479725437,380.9751653265113" fill="#a1b065"/><polygon points="454.5555041628122,383.51015182601554 461.18543513414113,386.7029583062535 462.8228928581141,393.8771293459651 458.2348382705291,399.6303678258281 450.8761700550953,399.6303678258281 446.28811546751035,393.8771293459651 447.9255731914833,386.7029583062535" fill="#6f7846"/><rect x="429.2179925994449" y="497.13645876077146" width="47.7" height="47.7" fill="#1e1a12" stroke="rgba(234,216,176,0.35)" stroke-width="2"/><polygon points="453.06799259944495,503.3197920941048 465.5602124004073,508.49423895980914 470.73465926611163,520.9864587607715 465.5602124004073,533.4786785617338 453.06799259944495,538.6531254274381 440.5757727984826,533.4786785617338 435.40132593277826,520.9864587607715 440.5757727984826,508.49423895980914" fill="#d5c16e"/><polygon points="453.06799259944495,512.5064587607715 459.06425810390687,514.9901932563096 461.54799259944497,520.9864587607715 459.06425810390687,526.9827242652334 453.06799259944495,529.4664587607715 447.07172709498303,526.9827242652334 444.58799259944493,520.9864587607715 447.07172709498303,514.9901932563096" fill="#91834c"/><rect x="479.32853839037926" y="806.4856585966352" width="47.7" height="47.7" fill="#1e1a12" stroke="rgba(234,216,176,0.35)" stroke-width="2"/><polygon points="503.1785383903793,812.6689919299686 518.4783205239044,821.5023252633018 518.4783205239044,839.1689919299686 503.1785383903793,848.0023252633018 487.8787562568542,839.1689919299686 487.8787562568542,821.5023252633018" fill="#70a58d"/><polygon points="503.1785383903793,821.8556585966352 510.52243381447136,826.0956585966352 510.52243381447136,834.5756585966352 503.1785383903793,838.8156585966352 495.8346429662873,834.5756585966352 495.8346429662872,826.0956585966352" fill="#4f7160"/><rect x="610.9733117483811" y="637.3498358637669" width="47.7" height="47.7" fill="#1e1a12" stroke="rgba(234,216,176,0.35)" stroke-width="2"/><polygon points="634.8233117483811,643.5331691971003 648.6356679386496,650.1848493642626 652.0470381969267,665.1310390303285 642.488591139458,677.116952530043 627.1580323573043,677.116952530043 617.5995852998356,665.1310390303285 621.0109555581126,650.1848493642626" fill="#e4b45d"/><polygon points="634.8233117483811,652.7198358637669 641.45324271971,655.9126423440049 643.090700443683,663.0868133837165 638.502645856098,668.8400518635794 631.1439776406643,668.8400518635794 626.5559230530793,663.0868133837165 628.1933807770522,655.9126423440049" fill="#9b7b41"/><rect x="518.1897779833488" y="757.9883258104227" width="47.7" height="47.7" fill="#1e1a12" stroke="rgba(234,216,176,0.35)" stroke-width="2"/><polygon points="542.0397779833488,764.1716591437561 554.5319977843111,769.3461060094604 559.7064446500154,781.8383258104227 554.5319977843111,794.330545611385 542.0397779833488,799.5049924770893 529.5475581823865,794.330545611385 524.3731113166822,781.8383258104227 529.5475581823865,769.3461060094604" fill="#7aa578"/><polygon points="542.0397779833488,773.3583258104227 548.0360434878107,775.8420603059608 550.5197779833488,781.8383258104227 548.0360434878107,787.8345913148846 542.0397779833488,790.3183258104227 536.0435124788869,787.8345913148846 533.5597779833488,781.8383258104227 536.0435124788869,775.8420603059608" fill="#567152"/><rect x="300.17636447733577" y="327.6707221994255" width="47.7" height="47.7" fill="#1e1a12" stroke="rgba(234,216,176,0.35)" stroke-width="2"/><polygon points="324.0263644773358,333.8540555327588 339.32614661086086,342.6873888660922 339.32614661086086,360.3540555327588 324.0263644773358,369.1873888660922 308.7265823438107,360.3540555327588 308.7265823438107,342.6873888660922" fill="#dc9a63"/><polygon points="324.0263644773358,343.0407221994255 331.37025990142786,347.2807221994255 331.37025990142786,355.7607221994255 324.0263644773358,360.0007221994255 316.6824690532438,355.7607221994255 316.6824690532437,347.2807221994255" fill="#956a45"/><rect x="466.87062904717857" y="701.4630898645876" width="47.7" height="47.7" fill="#1e1a12" stroke="rgba(234,216,176,0.35)" stroke-width="2"/><polygon points="490.7206290471786,707.646423197921 504.5329852374471,714.2981033650833 507.94435549572415,729.2442930311491 498.38590843825546,741.2302065308637 483.0553496561017,741.2302065308637 473.496902598633,729.2442930311491 476.90827285691006,714.2981033650833" fill="#aca391"/><polygon points="490.7206290471786,716.8330898645876 497.3505600185075,720.0258963448256 498.98801774248045,727.2000673845372 494.3999631548955,732.9533058644001 487.0412949394617,732.9533058644001 482.45324035187673,727.2000673845372 484.0906980758497,720.0258963448256" fill="#767062"/><rect x="521.0718316373728" y="637.3498358637669" width="47.7" height="47.7" fill="#1e1a12" stroke="rgba(234,216,176,0.35)" stroke-width="2"/><polygon points="544.9218316373729,643.5331691971003 557.4140514383352,648.7076160628046 562.5884983040395,661.1998358637669 557.4140514383352,673.6920556647292 544.9218316373729,678.8665025304335 532.4296118364106,673.6920556647292 527.2551649707062,661.1998358637669 532.4296118364106,648.7076160628046" fill="#a1b065"/><polygon points="544.9218316373729,652.7198358637669 550.9180971418348,655.203570359305 553.4018316373729,661.1998358637669 550.9180971418348,667.1961013682288 544.9218316373729,669.6798358637669 538.925566132911,667.1961013682288 536.4418316373728,661.1998358637669 538.925566132911,655.203570359305" fill="#6f7846"/><rect x="358.1893154486586" y="410.4790931473122" width="47.7" height="47.7" fill="#1e1a12" stroke="rgba(234,216,176,0.35)" stroke-width="2"/><polygon points="382.0393154486586,416.66242648064554 397.3390975821837,425.4957598139789 397.3390975821837,443.16242648064554 382.0393154486586,451.9957598139789 366.73953331513354,443.16242648064554 366.73953331513354,425.4957598139789" fill="#d5c16e"/><polygon points="382.0393154486586,425.8490931473122 389.3832108727506,430.0890931473122 389.3832108727507,438.56909314731223 382.0393154486586,442.80909314731224 374.6954200245666,438.56909314731223 374.6954200245666,430.0890931473122" fill="#91834c"/><rect x="356.42289546716" y="377.3777390233894" width="47.7" height="47.7" fill="#1e1a12" stroke="rgba(234,216,176,0.35)" stroke-width="2"/><polygon points="380.27289546716,383.5610723567227 394.08525165742856,390.2127525238851 397.4966219157056,405.15894218995095 387.9381748582369,417.14485568966546 372.60761607608316,417.14485568966546 363.04916901861446,405.15894218995095 366.4605392768915,390.2127525238851" fill="#70a58d"/><polygon points="380.27289546716,392.7477390233894 386.90282643848894,395.94054550362733 388.5402841624619,403.11471654333894 383.9522295748769,408.86795502320194 376.59356135944313,408.86795502320194 372.00550677185817,403.11471654333894 373.6429644958311,395.94054550362733" fill="#4f7160"/><rect x="357.3525901942645" y="447.6493844891259" width="47.7" height="47.7" fill="#1e1a12" stroke="rgba(234,216,176,0.35)" stroke-width="2"/><polygon points="381.20259019426453,453.83271782245924 393.6948099952269,459.0071646881636 398.8692568609312,471.49938448912593 393.6948099952269,483.9916042900883 381.20259019426453,489.1660511557926 368.7103703933022,483.9916042900883 363.53592352759784,471.49938448912593 368.7103703933022,459.0071646881636" fill="#e4b45d"/><polygon points="381.20259019426453,463.0193844891259 387.19885569872645,465.503118984664 389.68259019426455,471.49938448912593 387.19885569872645,477.49564999358785 381.20259019426453,479.97938448912595 375.2063246898026,477.49564999358785 372.7225901942645,471.49938448912593 375.2063246898026,465.503118984664" fill="#9b7b41"/><rect x="359.39791859389453" y="555.7511489536315" width="47.7" height="47.7" fill="#1e1a12" stroke="rgba(234,216,176,0.35)" stroke-width="2"/><polygon points="383.24791859389455,561.9344822869649 398.5477007274196,570.7678156202982 398.5477007274196,588.4344822869649 383.24791859389455,597.2678156202982 367.9481364603695,588.4344822869649 367.9481364603695,570.7678156202982" fill="#7aa578"/><polygon points="383.24791859389455,571.1211489536315 390.5918140179866,575.3611489536315 390.5918140179866,583.8411489536315 383.24791859389455,588.0811489536316 375.90402316980254,583.8411489536315 375.9040231698025,575.3611489536315" fill="#567152"/><rect x="379.2933857539315" y="548.9329298317604" width="47.7" height="47.7" fill="#1e1a12" stroke="rgba(234,216,176,0.35)" stroke-width="2"/><polygon points="403.1433857539315,555.1162631650938 416.95574194420004,561.7679433322561 420.3671122024771,576.7141329983219 410.8086651450084,588.7000464980365 395.47810636285465,588.7000464980365 385.91965930538595,576.7141329983219 389.331029563663,561.7679433322561" fill="#dc9a63"/><polygon points="403.1433857539315,564.3029298317604 409.77331672526043,567.4957363119984 411.4107744492334,574.66990735171 406.8227198616484,580.4231458315729 399.4640516462146,580.4231458315729 394.87599705862965,574.66990735171 396.5134547826026,567.4957363119984" fill="#956a45"/><rect x="256.2018038852914" y="106.73842839556832" width="47.7" height="47.7" fill="#1e1a12" stroke="rgba(234,216,176,0.35)" stroke-width="2"/><polygon points="280.0518038852914,112.92176172890164 292.54402368625375,118.09620859460597 297.7184705519581,130.58842839556831 292.54402368625375,143.08064819653066 280.0518038852914,148.25509506223497 267.55958408432906,143.08064819653066 262.3851372186247,130.58842839556831 267.55958408432906,118.09620859460597" fill="#aca391"/><polygon points="280.0518038852914,122.10842839556831 286.0480693897533,124.5921628911064 288.5318038852914,130.58842839556831 286.0480693897533,136.58469390003023 280.0518038852914,139.0684283955683 274.0555383808295,136.58469390003023 271.5718038852914,130.58842839556831 274.0555383808295,124.5921628911064" fill="#767062"/><rect x="828.15" y="596.8804062371769" width="47.7" height="47.7" fill="#1e1a12" stroke="rgba(234,216,176,0.35)" stroke-width="2"/><polygon points="852,603.0637395705103 867.2997821335251,611.8970729038435 867.2997821335251,629.5637395705103 852,638.3970729038435 836.7002178664749,629.5637395705103 836.7002178664749,611.8970729038435" fill="#a1b065"/><polygon points="852,612.2504062371769 859.343895424092,616.4904062371769 859.343895424092,624.9704062371769 852,629.2104062371769 844.656104575908,624.9704062371769 844.656104575908,616.4904062371769" fill="#6f7846"/><rect x="557.9807123034227" y="757.9883258104227" width="47.7" height="47.7" fill="#1e1a12" stroke="rgba(234,216,176,0.35)" stroke-width="2"/><polygon points="581.8307123034227,764.1716591437561 595.6430684936912,770.8233393109184 599.0544387519683,785.7695289769842 589.4959916944996,797.7554424766988 574.1654329123459,797.7554424766988 564.6069858548772,785.7695289769842 568.0183561131543,770.8233393109184" fill="#d5c16e"/><polygon points="581.8307123034227,773.3583258104227 588.4606432747516,776.5511322906607 590.0981009987246,783.7253033303723 585.5100464111396,789.4785418102352 578.1513781957059,789.4785418102352 573.5633236081209,783.7253033303723 575.2007813320938,776.5511322906607" fill="#91834c"/><rect x="253.1338112858464" y="28.108965941731633" width="47.7" height="47.7" fill="#1e1a12" stroke="rgba(234,216,176,0.35)" stroke-width="2"/><polygon points="276.9838112858464,34.29229927506496 289.47603108680875,39.466746140769295 294.6504779525131,51.958965941731634 289.47603108680875,64.45118574269398 276.9838112858464,69.6256326083983 264.49159148488405,64.45118574269398 259.3171446191797,51.958965941731634 264.49159148488405,39.466746140769295" fill="#70a58d"/><polygon points="276.9838112858464,43.47896594173163 282.9800767903083,45.96270043726971 285.4638112858464,51.958965941731634 282.9800767903083,57.95523144619356 276.9838112858464,60.43896594173164 270.9875457813845,57.95523144619356 268.5038112858464,51.958965941731634 270.9875457813845,45.96270043726971" fill="#4f7160"/><rect x="379.66526364477335" y="406.3001846532622" width="47.7" height="47.7" fill="#1e1a12" stroke="rgba(234,216,176,0.35)" stroke-width="2"/><polygon points="403.51526364477337,412.48351798659553 418.81504577829844,421.3168513199289 418.81504577829844,438.98351798659553 403.51526364477337,447.8168513199289 388.2154815112483,438.98351798659553 388.2154815112483,421.3168513199289" fill="#e4b45d"/><polygon points="403.51526364477337,421.6701846532622 410.85915906886544,425.9101846532622 410.85915906886544,434.3901846532622 403.51526364477337,438.63018465326223 396.17136822068136,434.3901846532622 396.1713682206813,425.9101846532622" fill="#9b7b41"/><rect x="672.6120721554116" y="293.46965531391055" width="47.7" height="47.7" fill="#1e1a12" stroke="rgba(234,216,176,0.35)" stroke-width="2"/><polygon points="696.4620721554116,299.6529886472439 710.2744283456801,306.3046688144063 713.6857986039572,321.2508584804721 704.1273515464885,333.23677198018663 688.7967927643348,333.23677198018663 679.2383457068661,321.2508584804721 682.6497159651432,306.3046688144063" fill="#7aa578"/><polygon points="696.4620721554116,308.83965531391055 703.0920031267406,312.0324617941485 704.7294608507135,319.2066328338601 700.1414062631285,324.9598713137231 692.7827380476948,324.9598713137231 688.1946834601098,319.2066328338601 689.8321411840827,312.0324617941485" fill="#567152"/><rect x="707.0107770582794" y="812.8639926138695" width="47.7" height="47.7" fill="#1e1a12" stroke="rgba(234,216,176,0.35)" stroke-width="2"/><polygon points="730.8607770582794,819.0473259472029 743.3529968592417,824.2217728129073 748.527443724946,836.7139926138696 743.3529968592417,849.2062124148318 730.8607770582794,854.3806592805362 718.3685572573171,849.2062124148318 713.1941103916128,836.7139926138696 718.3685572573171,824.2217728129073" fill="#dc9a63"/><polygon points="730.8607770582794,828.2339926138695 736.8570425627413,830.7177271094076 739.3407770582794,836.7139926138696 736.8570425627413,842.7102581183315 730.8607770582794,845.1939926138696 724.8645115538175,842.7102581183315 722.3807770582794,836.7139926138696 724.8645115538175,830.7177271094076" fill="#956a45"/><rect x="551.6587881591119" y="101.12989331144851" width="47.7" height="47.7" fill="#1e1a12" stroke="rgba(234,216,176,0.35)" stroke-width="2"/><polygon points="575.5087881591119,107.31322664478184 590.808570292637,116.14655997811518 590.808570292637,133.81322664478185 575.5087881591119,142.64655997811516 560.2090060255867,133.81322664478185 560.2090060255867,116.14655997811516" fill="#aca391"/><polygon points="575.5087881591119,116.4998933114485 582.8526835832039,120.73989331144851 582.8526835832039,129.21989331144852 575.5087881591119,133.4598933114485 568.1648927350199,129.21989331144852 568.1648927350199,120.73989331144851" fill="#767062"/><rect x="164.99875115633674" y="191.08639720968404" width="47.7" height="47.7" fill="#1e1a12" stroke="rgba(234,216,176,0.35)" stroke-width="2"/><polygon points="188.84875115633673,197.26973054301737 202.66110734660526,203.92141071017974 206.0724776048823,218.86760037624558 196.5140305474136,230.85351387596012 181.18347176525987,230.85351387596012 171.62502470779117,218.86760037624558 175.0363949660682,203.92141071017974" fill="#a1b065"/><polygon points="188.84875115633673,206.45639720968404 195.47868212766562,209.64920368992196 197.1161398516386,216.82337472963357 192.52808526405363,222.57661320949654 185.16941704861983,222.57661320949654 180.58136246103487,216.82337472963357 182.21882018500784,209.64920368992196" fill="#6f7846"/><rect x="488.5325161887141" y="694.6448707427164" width="47.7" height="47.7" fill="#1e1a12" stroke="rgba(234,216,176,0.35)" stroke-width="2"/><polygon points="512.3825161887141,700.8282040760498 524.8747359896764,706.0026509417542 530.0491828553808,718.4948707427164 524.8747359896764,730.9870905436787 512.3825161887141,736.1615374093831 499.8902963877518,730.9870905436787 494.71584952204745,718.4948707427164 499.8902963877518,706.0026509417542" fill="#d5c16e"/><polygon points="512.3825161887141,710.0148707427164 518.378781693176,712.4986052382545 520.8625161887142,718.4948707427164 518.378781693176,724.4911362471784 512.3825161887141,726.9748707427165 506.3862506842522,724.4911362471784 503.9025161887141,718.4948707427164 506.3862506842522,712.4986052382545" fill="#91834c"/><rect x="379.20041628122107" y="446.3297291752154" width="47.7" height="47.7" fill="#1e1a12" stroke="rgba(234,216,176,0.35)" stroke-width="2"/><polygon points="403.0504162812211,452.5130625085487 418.35019841474616,461.3463958418821 418.35019841474616,479.0130625085487 403.0504162812211,487.8463958418821 387.750634147696,479.0130625085487 387.750634147696,461.3463958418821" fill="#70a58d"/><polygon points="403.0504162812211,461.6997291752154 410.39431170531316,465.9397291752154 410.39431170531316,474.4197291752154 403.0504162812211,478.65972917521543 395.7065208571291,474.4197291752154 395.706520857129,465.9397291752154" fill="#4f7160"/><rect x="212.87802960222015" y="148.85742716454658" width="47.7" height="47.7" fill="#1e1a12" stroke="rgba(234,216,176,0.35)" stroke-width="2"/><polygon points="236.72802960222015,155.04076049787992 250.54038579248868,161.69244066504228 253.9517560507657,176.63863033110812 244.393308993297,188.62454383082263 229.06275021114328,188.62454383082263 219.50430315367458,176.63863033110812 222.91567341195162,161.69244066504228" fill="#e4b45d"/><polygon points="236.72802960222015,164.22742716454658 243.35796057354904,167.4202336447845 244.995418297522,174.5944046844961 240.40736370993704,180.34764316435908 233.04869549450325,180.34764316435908 228.4606409069183,174.5944046844961 230.09809863089126,167.4202336447845" fill="#9b7b41"/><rect x="379.9441720629047" y="324.1516413623307" width="47.7" height="47.7" fill="#1e1a12" stroke="rgba(234,216,176,0.35)" stroke-width="2"/><polygon points="403.79417206290475,330.334974695664 416.2863918638671,335.50942156136836 421.46083872957144,348.0016413623307 416.2863918638671,360.49386116329305 403.79417206290475,365.6683080289974 391.3019522619424,360.49386116329305 386.12750539623806,348.0016413623307 391.3019522619424,335.50942156136836" fill="#7aa578"/><polygon points="403.79417206290475,339.5216413623307 409.79043756736667,342.0053758578688 412.27417206290477,348.0016413623307 409.79043756736667,353.9979068667926 403.79417206290475,356.4816413623307 397.79790655844283,353.9979068667926 395.31417206290473,348.0016413623307 397.79790655844283,342.0053758578688" fill="#567152"/><rect x="541.0602682701202" y="186.90748871563397" width="47.7" height="47.7" fill="#1e1a12" stroke="rgba(234,216,176,0.35)" stroke-width="2"/><polygon points="564.9102682701202,193.0908220489673 580.2100504036454,201.92415538230063 580.2100504036454,219.5908220489673 564.9102682701202,228.42415538230063 549.6104861365951,219.5908220489673 549.6104861365951,201.92415538230063" fill="#dc9a63"/><polygon points="564.9102682701202,202.27748871563398 572.2541636942123,206.51748871563396 572.2541636942123,214.99748871563398 564.9102682701202,219.23748871563396 557.5663728460282,214.99748871563398 557.5663728460282,206.51748871563396" fill="#956a45"/><rect x="214.45851063829787" y="80.67523594583506" width="47.7" height="47.7" fill="#1e1a12" stroke="rgba(234,216,176,0.35)" stroke-width="2"/><polygon points="238.30851063829786,86.85856927916838 252.1208668285664,93.51024944633076 255.53223708684342,108.45643911239661 245.97379002937473,120.44235261211112 230.643231247221,120.44235261211112 221.0847841897523,108.45643911239661 224.49615444802933,93.51024944633076" fill="#aca391"/><polygon points="238.30851063829786,96.04523594583505 244.93844160962675,99.238042426073 246.57589933359972,106.41221346578459 241.98784474601476,112.16545194564756 234.62917653058096,112.16545194564756 230.041121942996,106.4122134657846 231.67857966696897,99.238042426073" fill="#767062"/><rect x="582.268362627197" y="181.63016003282723" width="37.800000000000004" height="37.800000000000004" fill="#1e1a12" stroke="rgba(234,216,176,0.35)" stroke-width="2"/><polygon points="601.168362627197,186.53016003282724 611.0678575638086,190.63066509621558 615.168362627197,200.53016003282724 611.0678575638086,210.4296549694389 601.168362627197,214.53016003282724 591.2688676905854,210.4296549694389 587.168362627197,200.53016003282724 591.2688676905854,190.63066509621558" fill="#a1b065"/><polygon points="601.168362627197,193.81016003282724 605.9201201967705,195.77840246325366 607.888362627197,200.53016003282724 605.9201201967705,205.28191760240082 601.168362627197,207.25016003282724 596.4166050576234,205.28191760240085 594.448362627197,200.53016003282724 596.4166050576234,195.77840246325366" fill="#6f7846"/><rect x="653.1111008325624" y="185.0392695937628" width="37.800000000000004" height="37.800000000000004" fill="#1e1a12" stroke="rgba(234,216,176,0.35)" stroke-width="2"/><polygon points="672.0111008325624,189.93926959376282 684.1354564855445,196.93926959376282 684.1354564855445,210.93926959376282 672.0111008325624,217.93926959376282 659.8867451795803,210.93926959376282 659.8867451795803,196.93926959376282" fill="#d5c16e"/><polygon points="672.0111008325624,197.21926959376282 677.8307915459939,200.5792695937628 677.8307915459939,207.2992695937628 672.0111008325624,210.65926959376282 666.191410119131,207.29926959376283 666.191410119131,200.5792695937628" fill="#91834c"/><rect x="610.159204440333" y="196.25633976200245" width="37.800000000000004" height="37.800000000000004" fill="#1e1a12" stroke="rgba(234,216,176,0.35)" stroke-width="2"/><polygon points="629.059204440333,201.15633976200246 640.0048451948854,206.4274825359802 642.7081952108786,218.27163283739085 635.1335767879789,227.76990391263632 622.9848320926872,227.76990391263632 615.4102136697875,218.27163283739085 618.1135636857806,206.4274825359802" fill="#70a58d"/><polygon points="629.059204440333,208.43633976200246 634.3131120025182,210.96648829351176 635.6107200101949,216.6516804381889 631.974903167203,221.21085055430672 626.143505713463,221.21085055430672 622.5076888704712,216.6516804381889 623.8052968781478,210.96648829351176" fill="#4f7160"/>
  <rect width="900" height="900" filter="url(#su-plan-grain)" opacity="0.16" style="pointer-events:none"/>
  <rect width="900" height="900" fill="url(#su-plan-vig)" style="pointer-events:none"/>
</svg>