<?xml version="1.0" encoding="UTF-8"?>
<svg xmlns="http://www.w3.org/2000/svg" width="900" height="900" viewBox="0 0 900 900" role="img" data-cover="1">
  <defs>
    <filter id="tl-gantt-grain" x="0" y="0" width="100%" height="100%">
    <feTurbulence type="fractalNoise" baseFrequency="0.72" numOctaves="3" stitchTiles="stitch" result="n"/>
    <feColorMatrix type="saturate" values="0" in="n" result="g"/>
    <feComponentTransfer in="g">
      <feFuncA type="table" tableValues="0 0.55"/>
    </feComponentTransfer>
  </filter>
    <radialGradient id="tl-gantt-vig" cx="50%" cy="46%" r="72%">
    <stop offset="42%" stop-color="#8e8477" stop-opacity="0"/>
    <stop offset="100%" stop-color="#8e8477" stop-opacity="0.42"/>
  </radialGradient>
    
  </defs>
  <rect width="900" height="900" fill="#16110e"/>
  <rect width="900" height="900" fill="#16110e"/><rect x="0" y="0" width="900" height="379" fill="#281e30"/><rect x="247.32824427480918" y="-6" width="54.9618320610687" height="390" fill="#6a4aa8"/><rect x="302.29007633587787" y="-6" width="54.9618320610687" height="390" fill="#6a4aa8"/><rect x="219.8473282442748" y="-6" width="27.48091603053435" height="390" fill="#6a4aa8"/><rect x="0" y="-6" width="109.9236641221374" height="390" fill="#6a4aa8"/><rect x="109.9236641221374" y="-6" width="109.9236641221374" height="390" fill="#6a4aa8"/><rect x="0" y="378" width="900" height="126.80783129993166" fill="#1c2829"/><rect x="27.48091603053435" y="378" width="27.48091603053435" height="126.80783129993166" fill="#2f7a8a"/><rect x="460.30534351145036" y="378" width="109.9236641221374" height="126.80783129993166" fill="#8890e0"/><rect x="0" y="378" width="27.48091603053435" height="126.80783129993166" fill="#70c0a0"/><rect x="54.9618320610687" y="378" width="27.48091603053435" height="126.80783129993166" fill="#7a9a3c"/><rect x="226.71755725190837" y="378" width="54.9618320610687" height="126.80783129993166" fill="#70c0a0"/><rect x="302.29007633587787" y="378" width="54.9618320610687" height="126.80783129993166" fill="#8890e0"/><rect x="164.8854961832061" y="378" width="54.9618320610687" height="126.80783129993166" fill="#70c0a0"/><rect x="432.82442748091603" y="378" width="27.48091603053435" height="126.80783129993166" fill="#8890e0"/><rect x="0" y="503.80783129993165" width="900" height="92.201648826045" fill="#2c2f18"/><rect x="522.1374045801526" y="503.80783129993165" width="54.9618320610687" height="92.201648826045" fill="#7a9a3c"/><rect x="288.54961832061065" y="503.80783129993165" width="54.9618320610687" height="92.201648826045" fill="#8a3a90"/><rect x="419.08396946564886" y="503.80783129993165" width="54.9618320610687" height="92.201648826045" fill="#6a4aa8"/><rect x="350.381679389313" y="503.80783129993165" width="54.9618320610687" height="92.201648826045" fill="#6a4aa8"/><rect x="405.34351145038164" y="503.80783129993165" width="13.740458015267174" height="92.201648826045" fill="#6a4aa8"/><rect x="0" y="595.0094801259767" width="900" height="89.47657886780355" fill="#2c2f18"/><rect x="824.4274809160305" y="595.0094801259767" width="27.48091603053435" height="89.47657886780355" fill="#7a9a3c"/><rect x="577.0992366412213" y="595.0094801259767" width="27.48091603053435" height="89.47657886780355" fill="#38a090"/><rect x="494.65648854961836" y="595.0094801259767" width="27.48091603053435" height="89.47657886780355" fill="#38a090"/><rect x="357.25190839694653" y="595.0094801259767" width="27.48091603053435" height="89.47657886780355" fill="#7a9a3c"/><rect x="302.29007633587787" y="595.0094801259767" width="54.9618320610687" height="89.47657886780355" fill="#7a9a3c"/><rect x="755.7251908396946" y="595.0094801259767" width="54.9618320610687" height="89.47657886780355" fill="#7a9a3c"/><rect x="522.1374045801526" y="595.0094801259767" width="54.9618320610687" height="89.47657886780355" fill="#38a090"/><rect x="810.6870229007633" y="595.0094801259767" width="13.740458015267174" height="89.47657886780355" fill="#7a9a3c"/><rect x="851.908396946565" y="595.0094801259767" width="27.48091603053435" height="89.47657886780355" fill="#7a9a3c"/><rect x="384.7328244274809" y="595.0094801259767" width="109.9236641221374" height="89.47657886780355" fill="#38a090"/><rect x="604.5801526717557" y="595.0094801259767" width="54.9618320610687" height="89.47657886780355" fill="#38a090"/><rect x="659.5419847328244" y="595.0094801259767" width="54.9618320610687" height="89.47657886780355" fill="#7a9a3c"/><rect x="0" y="683.4860589937803" width="900" height="76.82627207603127" fill="#36251b"/><rect x="219.8473282442748" y="683.4860589937803" width="27.48091603053435" height="76.82627207603127" fill="#a86a48"/><rect x="302.29007633587787" y="683.4860589937803" width="54.9618320610687" height="76.82627207603127" fill="#8890e0"/><rect x="247.32824427480918" y="683.4860589937803" width="54.9618320610687" height="76.82627207603127" fill="#a86a48"/><rect x="604.5801526717557" y="683.4860589937803" width="109.9236641221374" height="76.82627207603127" fill="#3d8a5a"/><rect x="0" y="759.3123310698115" width="900" height="72.61532673007572" fill="#42261d"/><rect x="384.7328244274809" y="759.3123310698115" width="109.9236641221374" height="72.61532673007572" fill="#e07050"/><rect x="245.61068702290075" y="759.3123310698115" width="56.679389312977094" height="72.61532673007572" fill="#8a3a90"/><rect x="302.29007633587787" y="759.3123310698115" width="54.9618320610687" height="72.61532673007572" fill="#8a3a90"/><rect x="357.25190839694653" y="759.3123310698115" width="27.48091603053435" height="72.61532673007572" fill="#e07050"/><rect x="0" y="830.9276577998872" width="900" height="70.07234220011286" fill="#3c1d1e"/><rect x="384.7328244274809" y="830.9276577998872" width="109.9236641221374" height="70.07234220011286" fill="#c44858"/><rect x="357.25190839694653" y="830.9276577998872" width="27.48091603053435" height="70.07234220011286" fill="#f0a070"/><rect x="164.8854961832061" y="830.9276577998872" width="54.9618320610687" height="70.07234220011286" fill="#f0a070"/><rect x="109.9236641221374" y="830.9276577998872" width="54.9618320610687" height="70.07234220011286" fill="#f0a070"/><rect x="302.29007633587787" y="830.9276577998872" width="54.9618320610687" height="70.07234220011286" fill="#f0a070"/><rect x="219.8473282442748" y="830.9276577998872" width="27.48091603053435" height="70.07234220011286" fill="#f0a070"/><rect x="0" y="830.9276577998872" width="109.9236641221374" height="70.07234220011286" fill="#f0a070"/><rect x="247.32824427480918" y="830.9276577998872" width="54.9618320610687" height="70.07234220011286" fill="#f0a070"/>
  <rect width="900" height="900" filter="url(#tl-gantt-grain)" opacity="0.16" style="pointer-events:none"/>
  <rect width="900" height="900" fill="url(#tl-gantt-vig)" style="pointer-events:none"/>
</svg>