<?xml version="1.0" encoding="UTF-8"?>
<svg xmlns="http://www.w3.org/2000/svg" width="900" height="900" viewBox="0 0 900 900" role="img" data-cover="1">
  <defs>
    <filter id="tl-look-grain" x="0" y="0" width="100%" height="100%">
    <feTurbulence type="fractalNoise" baseFrequency="0.72" numOctaves="3" stitchTiles="stitch" result="n"/>
    <feColorMatrix type="saturate" values="0" in="n" result="g"/>
    <feComponentTransfer in="g">
      <feFuncA type="table" tableValues="0 0.55"/>
    </feComponentTransfer>
  </filter>
    <radialGradient id="tl-look-vig" cx="50%" cy="46%" r="72%">
    <stop offset="42%" stop-color="#897e6e" stop-opacity="0"/>
    <stop offset="100%" stop-color="#897e6e" stop-opacity="0.42"/>
  </radialGradient>
    
  </defs>
  <rect width="900" height="900" fill="#121014"/>
  <circle cx="450" cy="450" r="432" fill="#2a2430"/><path d="M 450,293.90532134635447 A 156.09467865364553 156.09467865364553 0 1 1 390.26515259889715,305.78732125797046 L 422.9032199486336,384.58258610335054 A 70.80729856503265 70.80729856503265 0 1 0 450,379.1927014349674 Z" fill="#7a9a3c"/><path d="M 390.26515259889715,305.78732125797046 A 156.09467865364553 156.09467865364553 0 0 1 449.99999999999994,293.90532134635447 L 450,379.1927014349674 A 70.80729856503265 70.80729856503265 0 0 0 422.9032199486336,384.58258610335054 Z" fill="#7a9a3c"/><path d="M 450,221.77111236067867 A 228.22888763932133 228.22888763932133 0 0 1 537.3394140866819,660.8559980177872 L 518.4285072581072,615.201030275468 A 178.81230665043427 178.81230665043427 0 0 0 450,271.18769334956573 Z" fill="#a84898"/><path d="M 537.3394140866819,660.8559980177872 A 228.22888763932133 228.22888763932133 0 0 1 362.66058591331796,239.14400198221287 L 381.5714927418927,284.79896972453196 A 178.81230665043427 178.81230665043427 0 0 0 518.4285072581072,615.201030275468 Z" fill="#a84898"/><path d="M 450,200.0203596871183 A 249.9796403128817 249.9796403128817 0 1 1 354.3369332236757,219.0489267703953 L 362.66058591331796,239.14400198221287 A 228.22888763932133 228.22888763932133 0 1 0 450,221.77111236067867 Z" fill="#f0a070"/><path d="M 563.4887278902198,723.9860260490383 A 296.5603375845877 296.5603375845877 0 0 1 336.51127210978007,176.01397395096177 L 354.3369332236757,219.0489267703953 A 249.9796403128817 249.9796403128817 0 0 0 545.6630667763242,680.9510732296047 Z" fill="#38a090"/><path d="M 450,153.43966241541227 A 296.5603375845877 296.5603375845877 0 0 1 563.4887278902198,723.9860260490383 L 545.6630667763242,680.9510732296047 A 249.9796403128817 249.9796403128817 0 0 0 450,200.0203596871183 Z" fill="#38a090"/><path d="M 336.51127210978007,176.01397395096177 A 296.5603375845877 296.5603375845877 0 0 1 449.99999999999994,153.43966241541227 L 449.99999999999994,200.0203596871183 A 249.9796403128817 249.9796403128817 0 0 0 354.3369332236757,219.0489267703953 Z" fill="#38a090"/><path d="M 590.638033020922,789.530246704585 A 367.5048907963951 367.5048907963951 0 0 1 309.3619669790778,110.4697532954151 L 336.51127210978007,176.01397395096177 A 296.5603375845877 296.5603375845877 0 0 0 563.4887278902198,723.9860260490383 Z" fill="#8a3a90"/><path d="M 309.3619669790778,110.4697532954151 A 367.5048907963951 367.5048907963951 0 0 1 449.99999999999994,82.4951092036049 L 449.99999999999994,153.43966241541227 A 296.5603375845877 296.5603375845877 0 0 0 336.51127210978007,176.01397395096177 Z" fill="#8a3a90"/><path d="M 450,82.4951092036049 A 367.5048907963951 367.5048907963951 0 0 1 590.638033020922,789.530246704585 L 563.4887278902198,723.9860260490383 A 296.5603375845877 296.5603375845877 0 0 0 450,153.43966241541227 Z" fill="#8a3a90"/><path d="M 450,12.557772352050335 A 437.44222764794966 437.44222764794966 0 0 1 617.4018931377484,854.1439207800836 L 590.638033020922,789.530246704585 A 367.5048907963951 367.5048907963951 0 0 0 450,82.4951092036049 Z" fill="#2f8a7a"/><path d="M 282.59810686225137,45.85607921991647 A 437.44222764794966 437.44222764794966 0 0 1 449.99999999999994,12.557772352050335 L 449.99999999999994,82.4951092036049 A 367.5048907963951 367.5048907963951 0 0 0 309.3619669790778,110.4697532954151 Z" fill="#2f8a7a"/><path d="M 617.4018931377484,854.1439207800836 A 437.44222764794966 437.44222764794966 0 0 1 282.59810686225137,45.85607921991647 L 309.3619669790778,110.4697532954151 A 367.5048907963951 367.5048907963951 0 0 0 590.638033020922,789.530246704585 Z" fill="#2f8a7a"/><path d="M 633.5813224161626,893.2045183754876 A 479.72111382397486 479.72111382397486 0 0 1 266.4186775838371,6.795481624512433 L 282.59810686225137,45.85607921991647 A 437.44222764794966 437.44222764794966 0 0 0 617.4018931377484,854.1439207800836 Z" fill="#2f8a7a"/><path d="M 266.4186775838371,6.795481624512433 A 479.72111382397486 479.72111382397486 0 0 1 449.9999999999999,-29.72111382397486 L 449.99999999999994,12.557772352050335 A 437.44222764794966 437.44222764794966 0 0 0 282.59810686225137,45.85607921991647 Z" fill="#2f8a7a"/><path d="M 450.00000000000006,-29.72111382397486 A 479.72111382397486 479.72111382397486 0 0 1 633.5813224161626,893.2045183754876 L 617.4018931377484,854.1439207800836 A 437.44222764794966 437.44222764794966 0 0 0 450,12.557772352050335 Z" fill="#2f8a7a"/><path d="M 250.23924830542285,-32.26511597089154 A 522 522 0 0 1 449.9999999999999,-72 L 449.9999999999999,-29.72111382397486 A 479.72111382397486 479.72111382397486 0 0 0 266.4186775838371,6.795481624512433 Z" fill="#2f8a7a"/><path d="M 649.7607516945769,932.2651159708917 A 522 522 0 0 1 250.23924830542285,-32.26511597089154 L 266.4186775838371,6.795481624512433 A 479.72111382397486 479.72111382397486 0 0 0 633.5813224161626,893.2045183754876 Z" fill="#2f8a7a"/><path d="M 450.00000000000006,-72 A 522 522 0 0 1 649.7607516945769,932.2651159708917 L 633.5813224161626,893.2045183754876 A 479.72111382397486 479.72111382397486 0 0 0 450.00000000000006,-29.72111382397486 Z" fill="#2f8a7a"/><circle cx="450" cy="450" r="42" fill="#121014"/>
  <rect width="900" height="900" filter="url(#tl-look-grain)" opacity="0.16" style="pointer-events:none"/>
  <rect width="900" height="900" fill="url(#tl-look-vig)" style="pointer-events:none"/>
</svg>