<?xml version="1.0" encoding="UTF-8"?>
<svg xmlns="http://www.w3.org/2000/svg" width="900" height="900" viewBox="0 0 900 900" role="img" data-cover="1" data-cover-state="note-cloud">
  <defs>
    <filter id="ur-1603-grain" x="0" y="0" width="100%" height="100%">
    <feTurbulence type="fractalNoise" baseFrequency="0.72" numOctaves="3" stitchTiles="stitch" result="n"/>
    <feColorMatrix type="saturate" values="0" in="n" result="g"/>
    <feComponentTransfer in="g">
      <feFuncA type="table" tableValues="0 0.55"/>
    </feComponentTransfer>
  </filter>
    <radialGradient id="ur-1603-vig" cx="50%" cy="46%" r="72%">
    <stop offset="42%" stop-color="#876a4a" stop-opacity="0"/>
    <stop offset="100%" stop-color="#876a4a" stop-opacity="0.42"/>
  </radialGradient>
    
  </defs>
  <rect width="900" height="900" fill="#1a1410"/>
  <path d="M 36.779200701335704 89.00923342958632 L 664.5306717232547 193.83798364708267 L 766.2335291231016 217.987575492401 L 767.020379796936 504.8692950040102 L 295.8314797628222 604.0078965295462 L 111.33285704715348 598.9123854531898 L 40.03621916679492 551.9647855211232 L 32.12838635698785 437.45680194315435 Z" fill="none" stroke="rgba(224,176,122,0.28)" stroke-width="1.6"/><circle cx="625.875" cy="522.8301886792453" r="2.4" fill="#e0b07a" opacity="0.62"/><circle cx="374.625" cy="289.7735849056604" r="2.85" fill="#dda068" opacity="0.72"/><circle cx="450" cy="384.4528301886793" r="3.3" fill="#e0ac65" opacity="0.8200000000000001"/><circle cx="161.0625" cy="581.0943396226414" r="3.75" fill="#c3aa69" opacity="0.92"/><circle cx="349.5" cy="537.3962264150944" r="4.2" fill="#b2a571" opacity="0.62"/><circle cx="550.5" cy="260.6415094339623" r="2.4" fill="#aea17e" opacity="0.72"/><circle cx="48" cy="391.7358490566038" r="2.85" fill="#b69789" opacity="0.8200000000000001"/><circle cx="500.25" cy="275.2075471698114" r="3.3" fill="#c88f80" opacity="0.92"/><circle cx="349.5" cy="289.7735849056604" r="3.75" fill="#aea57a" opacity="0.62"/><circle cx="380.90625" cy="399.0188679245283" r="4.2" fill="#e0b07a" opacity="0.72"/><circle cx="123.375" cy="566.5283018867924" r="2.4" fill="#bf9387" opacity="0.8200000000000001"/><circle cx="751.5" cy="500.9811320754717" r="2.85" fill="#c8a47c" opacity="0.92"/><circle cx="349.5" cy="362.6037735849057" r="3.3" fill="#dda068" opacity="0.62"/><circle cx="450" cy="435.4339622641509" r="3.75" fill="#e0ac65" opacity="0.72"/><circle cx="148.5" cy="304.33962264150944" r="4.2" fill="#c3aa69" opacity="0.8200000000000001"/><circle cx="123.375" cy="297.0566037735849" r="2.4" fill="#b2a571" opacity="0.92"/><circle cx="349.5" cy="340.7547169811321" r="2.85" fill="#aea17e" opacity="0.62"/><circle cx="349.5" cy="297.0566037735849" r="3.3" fill="#b69789" opacity="0.72"/><circle cx="223.875" cy="588.377358490566" r="3.75" fill="#e0b07a" opacity="0.8200000000000001"/><circle cx="500.25" cy="275.2075471698114" r="4.2" fill="#aea57a" opacity="0.92"/><circle cx="173.625" cy="304.33962264150944" r="2.4" fill="#d38f76" opacity="0.62"/><circle cx="249" cy="326.188679245283" r="2.85" fill="#bf9387" opacity="0.72"/><circle cx="148.5" cy="304.33962264150944" r="3.3" fill="#c8a47c" opacity="0.8200000000000001"/><circle cx="387.1875" cy="537.3962264150944" r="3.75" fill="#dda068" opacity="0.92"/><circle cx="575.625" cy="238.79245283018864" r="4.2" fill="#e0ac65" opacity="0.62"/><circle cx="148.5" cy="326.188679245283" r="2.4" fill="#c3aa69" opacity="0.72"/><circle cx="374.625" cy="362.6037735849057" r="2.85" fill="#b2a571" opacity="0.8200000000000001"/><circle cx="575.625" cy="238.79245283018864" r="3.3" fill="#e0b07a" opacity="0.92"/><circle cx="249" cy="311.622641509434" r="3.75" fill="#b69789" opacity="0.62"/><circle cx="123.375" cy="355.3207547169811" r="4.2" fill="#c88f80" opacity="0.72"/><circle cx="324.375" cy="362.6037735849057" r="2.4" fill="#aea57a" opacity="0.8200000000000001"/><circle cx="316" cy="326.188679245283" r="2.85" fill="#d38f76" opacity="0.92"/><circle cx="148.5" cy="435.4339622641509" r="3.3" fill="#bf9387" opacity="0.62"/><circle cx="198.75" cy="326.188679245283" r="3.75" fill="#c8a47c" opacity="0.72"/><circle cx="54.28125" cy="544.6792452830189" r="4.2" fill="#dda068" opacity="0.8200000000000001"/><circle cx="651" cy="202.377358490566" r="2.4" fill="#e0ac65" opacity="0.92"/><circle cx="249" cy="420.8679245283019" r="2.85" fill="#e0b07a" opacity="0.62"/><circle cx="324.375" cy="289.7735849056604" r="3.3" fill="#b2a571" opacity="0.72"/><circle cx="198.75" cy="282.4905660377359" r="3.75" fill="#aea17e" opacity="0.8200000000000001"/><circle cx="148.5" cy="297.0566037735849" r="4.2" fill="#b69789" opacity="0.92"/><circle cx="274.125" cy="588.377358490566" r="2.4" fill="#c88f80" opacity="0.62"/><circle cx="123.375" cy="588.377358490566" r="2.85" fill="#aea57a" opacity="0.72"/><circle cx="349.5" cy="246.07547169811318" r="3.3" fill="#d38f76" opacity="0.8200000000000001"/><circle cx="48" cy="435.4339622641509" r="3.75" fill="#bf9387" opacity="0.92"/><circle cx="54.28125" cy="311.622641509434" r="4.2" fill="#c8a47c" opacity="0.62"/><circle cx="148.5" cy="297.0566037735849" r="2.4" fill="#e0b07a" opacity="0.72"/><circle cx="173.625" cy="297.0566037735849" r="2.85" fill="#e0ac65" opacity="0.8200000000000001"/><circle cx="324.375" cy="304.33962264150944" r="3.3" fill="#c3aa69" opacity="0.92"/><circle cx="249" cy="340.7547169811321" r="3.75" fill="#b2a571" opacity="0.62"/><circle cx="341.125" cy="413.5849056603774" r="4.2" fill="#aea17e" opacity="0.72"/><circle cx="450" cy="275.2075471698114" r="2.4" fill="#b69789" opacity="0.8200000000000001"/><circle cx="135.9375" cy="311.622641509434" r="2.85" fill="#c88f80" opacity="0.92"/><circle cx="173.625" cy="326.188679245283" r="3.3" fill="#aea57a" opacity="0.62"/><circle cx="249" cy="399.0188679245283" r="3.75" fill="#d38f76" opacity="0.72"/><circle cx="651" cy="471.8490566037736" r="4.2" fill="#e0b07a" opacity="0.8200000000000001"/><circle cx="525.375" cy="275.2075471698114" r="2.4" fill="#c8a47c" opacity="0.92"/><circle cx="550.5" cy="464.5660377358491" r="2.85" fill="#dda068" opacity="0.62"/><circle cx="167.34375" cy="304.33962264150944" r="3.3" fill="#e0ac65" opacity="0.72"/><circle cx="48" cy="391.7358490566038" r="3.75" fill="#c3aa69" opacity="0.8200000000000001"/><circle cx="148.19248046875" cy="486.4150943396226" r="4.2" fill="#b2a571" opacity="0.92"/><circle cx="249" cy="289.7735849056604" r="2.4" fill="#aea17e" opacity="0.62"/><circle cx="751.5" cy="275.2075471698114" r="2.85" fill="#b69789" opacity="0.72"/><circle cx="412.3125" cy="537.3962264150944" r="3.3" fill="#c88f80" opacity="0.8200000000000001"/><circle cx="299.25" cy="588.377358490566" r="3.75" fill="#e0b07a" opacity="0.92"/><circle cx="148.5" cy="413.5849056603774" r="4.2" fill="#d38f76" opacity="0.62"/><circle cx="48" cy="260.6415094339623" r="2.4" fill="#bf9387" opacity="0.72"/><circle cx="48" cy="413.5849056603774" r="2.85" fill="#c8a47c" opacity="0.8200000000000001"/><circle cx="242.71875" cy="486.4150943396226" r="3.3" fill="#dda068" opacity="0.92"/><circle cx="651" cy="246.07547169811318" r="3.75" fill="#e0ac65" opacity="0.62"/><circle cx="123.375" cy="573.811320754717" r="4.2" fill="#c3aa69" opacity="0.72"/><circle cx="48" cy="100.41509433962264" r="2.4" fill="#b2a571" opacity="0.8200000000000001"/><circle cx="450" cy="297.0566037735849" r="2.85" fill="#aea17e" opacity="0.92"/><circle cx="198.75" cy="326.188679245283" r="3.3" fill="#e0b07a" opacity="0.62"/><circle cx="349.5" cy="289.7735849056604" r="3.75" fill="#c88f80" opacity="0.72"/><circle cx="148.5" cy="464.5660377358491" r="4.2" fill="#aea57a" opacity="0.8200000000000001"/><circle cx="751.5" cy="224.2264150943396" r="2.4" fill="#d38f76" opacity="0.92"/><circle cx="399.75" cy="537.3962264150944" r="2.85" fill="#bf9387" opacity="0.62"/><circle cx="48" cy="340.7547169811321" r="3.3" fill="#c8a47c" opacity="0.72"/><circle cx="198.75" cy="355.3207547169811" r="3.75" fill="#dda068" opacity="0.8200000000000001"/><circle cx="362.0625" cy="537.3962264150944" r="4.2" fill="#e0ac65" opacity="0.92"/><circle cx="274.125" cy="391.7358490566038" r="2.4" fill="#c3aa69" opacity="0.62"/><circle cx="223.875" cy="377.1698113207547" r="2.85" fill="#e0b07a" opacity="0.72"/><circle cx="211.3125" cy="326.188679245283" r="3.3" fill="#aea17e" opacity="0.8200000000000001"/><circle cx="267.84375" cy="311.622641509434" r="3.75" fill="#b69789" opacity="0.92"/><circle cx="349.5" cy="500.9811320754717" r="4.2" fill="#c88f80" opacity="0.62"/><circle cx="286.6875" cy="588.377358490566" r="2.4" fill="#aea57a" opacity="0.72"/><circle cx="651" cy="246.07547169811318" r="2.85" fill="#d38f76" opacity="0.8200000000000001"/><circle cx="148.5" cy="413.5849056603774" r="3.3" fill="#bf9387" opacity="0.92"/><circle cx="249" cy="471.8490566037736" r="3.75" fill="#c8a47c" opacity="0.62"/><circle cx="450" cy="384.4528301886793" r="4.2" fill="#dda068" opacity="0.72"/><circle cx="424.875" cy="311.622641509434" r="2.4" fill="#e0b07a" opacity="0.8200000000000001"/><circle cx="550.5" cy="435.4339622641509" r="2.85" fill="#c3aa69" opacity="0.92"/><circle cx="475.125" cy="275.2075471698114" r="3.3" fill="#b2a571" opacity="0.62"/><circle cx="349.5" cy="537.3962264150944" r="3.75" fill="#aea17e" opacity="0.72"/><circle cx="48" cy="340.7547169811321" r="4.2" fill="#b69789" opacity="0.8200000000000001"/><circle cx="550.5" cy="289.7735849056604" r="2.4" fill="#c88f80" opacity="0.92"/><circle cx="223.875" cy="588.377358490566" r="2.85" fill="#aea57a" opacity="0.62"/><circle cx="48" cy="384.4528301886793" r="3.3" fill="#d38f76" opacity="0.72"/><circle cx="249" cy="588.377358490566" r="3.75" fill="#bf9387" opacity="0.8200000000000001"/><circle cx="123.375" cy="362.6037735849057" r="4.2" fill="#e0b07a" opacity="0.92"/><circle cx="98.25" cy="275.2075471698114" r="2.4" fill="#dda068" opacity="0.62"/><circle cx="48" cy="391.7358490566038" r="2.85" fill="#e0ac65" opacity="0.72"/><circle cx="651" cy="202.377358490566" r="3.3" fill="#c3aa69" opacity="0.8200000000000001"/><circle cx="424.875" cy="508.2641509433962" r="3.75" fill="#b2a571" opacity="0.92"/><circle cx="249" cy="391.7358490566038" r="4.2" fill="#aea17e" opacity="0.62"/><circle cx="148.5" cy="551.9622641509434" r="2.4" fill="#b69789" opacity="0.72"/><circle cx="751.5" cy="297.0566037735849" r="2.85" fill="#c88f80" opacity="0.8200000000000001"/><circle cx="123.375" cy="588.377358490566" r="3.3" fill="#aea57a" opacity="0.92"/><circle cx="286.6875" cy="326.188679245283" r="3.75" fill="#e0b07a" opacity="0.62"/>
  <rect width="900" height="900" filter="url(#ur-1603-grain)" opacity="0.16" style="pointer-events:none"/>
  <rect width="900" height="900" fill="url(#ur-1603-vig)" style="pointer-events:none"/>
</svg>